<?xml version="1.0" encoding="UTF-8"?><svg id="Layer_2" xmlns="http://www.w3.org/2000/svg" viewBox="0 0 449.68 401.14"><g id="Background_Complete"><g><rect x="385.84" y="344.8" width="51.58" height="5.86" style="fill:#c7c7c7;"/><g><rect x="408.57" y="54.32" width="6.11" height="290.47" style="fill:#c7c7c7;"/><rect x="408.57" y="54.32" width="6.11" height="30.96" style="fill:#a6a6a6;"/></g><g><polygon points="443.97 72.25 379.27 72.25 383.97 56.8 384.14 56.25 397.82 11.29 425.42 11.29 439.11 56.26 439.11 56.27 439.26 56.78 443.97 72.25" style="fill:#ebebeb;"/><g><path d="M400.12,21.68c0,.24-.19,.43-.43,.43s-.43-.19-.43-.43,.19-.43,.43-.43,.43,.19,.43,.43Z" style="fill:#fff;"/><path d="M408.08,21.68c0,.24-.19,.43-.43,.43s-.43-.19-.43-.43,.19-.43,.43-.43,.43,.19,.43,.43Z" style="fill:#fff;"/><path d="M416.05,21.68c0,.24-.19,.43-.43,.43s-.43-.19-.43-.43,.19-.43,.43-.43,.43,.19,.43,.43Z" style="fill:#fff;"/><path d="M424.02,21.68c0,.24-.19,.43-.43,.43s-.43-.19-.43-.43,.19-.43,.43-.43,.43,.19,.43,.43Z" style="fill:#fff;"/><path d="M404.1,16.1c0,.24-.19,.43-.43,.43s-.43-.19-.43-.43,.19-.44,.43-.44,.43,.19,.43,.44Z" style="fill:#fff;"/><path d="M412.07,16.1c0,.24-.19,.43-.43,.43s-.43-.19-.43-.43,.19-.44,.43-.44,.43,.19,.43,.44Z" style="fill:#fff;"/><path d="M420.03,16.1c0,.24-.19,.43-.43,.43s-.43-.19-.43-.43,.19-.44,.43-.44,.43,.19,.43,.44Z" style="fill:#fff;"/><path d="M392.15,33.27c0,.24-.19,.43-.43,.43s-.43-.19-.43-.43,.19-.43,.43-.43,.43,.19,.43,.43Z" style="fill:#fff;"/><path d="M400.12,33.27c0,.24-.19,.43-.43,.43s-.43-.19-.43-.43,.19-.43,.43-.43,.43,.19,.43,.43Z" style="fill:#fff;"/><path d="M408.08,33.27c0,.24-.19,.43-.43,.43s-.43-.19-.43-.43,.19-.43,.43-.43,.43,.19,.43,.43Z" style="fill:#fff;"/><path d="M416.05,33.27c0,.24-.19,.43-.43,.43s-.43-.19-.43-.43,.19-.43,.43-.43,.43,.19,.43,.43Z" style="fill:#fff;"/><path d="M424.02,33.27c0,.24-.19,.43-.43,.43s-.43-.19-.43-.43,.19-.43,.43-.43,.43,.19,.43,.43Z" style="fill:#fff;"/><path d="M431.98,33.27c0,.24-.19,.43-.43,.43s-.43-.19-.43-.43,.19-.43,.43-.43,.43,.19,.43,.43Z" style="fill:#fff;"/><path d="M396.13,27.69c0,.24-.19,.43-.43,.43s-.43-.19-.43-.43,.19-.44,.43-.44,.43,.19,.43,.44Z" style="fill:#fff;"/><path d="M404.1,27.69c0,.24-.19,.43-.43,.43s-.43-.19-.43-.43,.19-.44,.43-.44,.43,.19,.43,.44Z" style="fill:#fff;"/><path d="M412.07,27.69c0,.24-.19,.43-.43,.43s-.43-.19-.43-.43,.19-.44,.43-.44,.43,.19,.43,.44Z" style="fill:#fff;"/><path d="M420.03,27.69c0,.24-.19,.43-.43,.43s-.43-.19-.43-.43,.19-.44,.43-.44,.43,.19,.43,.44Z" style="fill:#fff;"/><path d="M428,27.69c0,.24-.19,.43-.43,.43s-.43-.19-.43-.43,.19-.44,.43-.44,.43,.19,.43,.44Z" style="fill:#fff;"/><path d="M392.15,44.85c0,.24-.19,.43-.43,.43s-.43-.19-.43-.43,.19-.44,.43-.44,.43,.19,.43,.44Z" style="fill:#fff;"/><path d="M400.12,44.85c0,.24-.19,.43-.43,.43s-.43-.19-.43-.43,.19-.44,.43-.44,.43,.19,.43,.44Z" style="fill:#fff;"/><path d="M408.08,44.85c0,.24-.19,.43-.43,.43s-.43-.19-.43-.43,.19-.44,.43-.44,.43,.19,.43,.44Z" style="fill:#fff;"/><path d="M416.05,44.85c0,.24-.19,.43-.43,.43s-.43-.19-.43-.43,.19-.44,.43-.44,.43,.19,.43,.44Z" style="fill:#fff;"/><path d="M424.02,44.85c0,.24-.19,.43-.43,.43s-.43-.19-.43-.43,.19-.44,.43-.44,.43,.19,.43,.44Z" style="fill:#fff;"/><path d="M431.98,44.85c0,.24-.19,.43-.43,.43s-.43-.19-.43-.43,.19-.44,.43-.44,.43,.19,.43,.44Z" style="fill:#fff;"/><path d="M396.13,39.27c0,.24-.19,.43-.43,.43s-.43-.19-.43-.43,.19-.43,.43-.43,.43,.19,.43,.43Z" style="fill:#fff;"/><path d="M404.1,39.27c0,.24-.19,.43-.43,.43s-.43-.19-.43-.43,.19-.43,.43-.43,.43,.19,.43,.43Z" style="fill:#fff;"/><path d="M412.07,39.27c0,.24-.19,.43-.43,.43s-.43-.19-.43-.43,.19-.43,.43-.43,.43,.19,.43,.43Z" style="fill:#fff;"/><path d="M420.03,39.27c0,.24-.19,.43-.43,.43s-.43-.19-.43-.43,.19-.43,.43-.43,.43,.19,.43,.43Z" style="fill:#fff;"/><path d="M428,39.27c0,.24-.19,.43-.43,.43s-.43-.19-.43-.43,.19-.43,.43-.43,.43,.19,.43,.43Z" style="fill:#fff;"/><path d="M384.18,56.43c0,.16-.08,.3-.21,.37l.17-.55c.03,.06,.04,.12,.04,.18Z" style="fill:#fff;"/><path d="M392.15,56.44c0,.24-.19,.43-.43,.43s-.43-.19-.43-.43,.19-.44,.43-.44,.43,.19,.43,.44Z" style="fill:#fff;"/><path d="M400.12,56.44c0,.24-.19,.43-.43,.43s-.43-.19-.43-.43,.19-.44,.43-.44,.43,.19,.43,.44Z" style="fill:#fff;"/><path d="M408.08,56.44c0,.24-.19,.43-.43,.43s-.43-.19-.43-.43,.19-.44,.43-.44,.43,.19,.43,.44Z" style="fill:#fff;"/><path d="M416.05,56.44c0,.24-.19,.43-.43,.43s-.43-.19-.43-.43,.19-.44,.43-.44,.43,.19,.43,.44Z" style="fill:#fff;"/><path d="M424.02,56.44c0,.24-.19,.43-.43,.43s-.43-.19-.43-.43,.19-.44,.43-.44,.43,.19,.43,.44Z" style="fill:#fff;"/><path d="M431.98,56.44c0,.24-.19,.43-.43,.43s-.43-.19-.43-.43,.19-.44,.43-.44,.43,.19,.43,.44Z" style="fill:#fff;"/><path d="M439.26,56.78c-.11-.07-.18-.2-.18-.35,0-.06,0-.11,.03-.16l.15,.51Z" style="fill:#fff;"/><path d="M388.16,50.86c0,.24-.19,.44-.43,.44s-.43-.19-.43-.44,.19-.43,.43-.43,.43,.19,.43,.43Z" style="fill:#fff;"/><circle cx="395.7" cy="50.86" r=".43" style="fill:#fff;"/><path d="M404.1,50.86c0,.24-.19,.44-.43,.44s-.43-.19-.43-.44,.19-.43,.43-.43,.43,.19,.43,.43Z" style="fill:#fff;"/><path d="M412.07,50.86c0,.24-.19,.44-.43,.44s-.43-.19-.43-.44,.19-.43,.43-.43,.43,.19,.43,.43Z" style="fill:#fff;"/><path d="M420.03,50.86c0,.24-.19,.44-.43,.44s-.43-.19-.43-.44,.19-.43,.43-.43,.43,.19,.43,.43Z" style="fill:#fff;"/><path d="M428,50.86c0,.24-.19,.44-.43,.44s-.43-.19-.43-.44,.19-.43,.43-.43,.43,.19,.43,.43Z" style="fill:#fff;"/><circle cx="435.53" cy="50.86" r=".43" style="fill:#fff;"/><path d="M384.18,68.02c0,.24-.19,.43-.44,.43s-.43-.19-.43-.43,.19-.43,.43-.43,.44,.19,.44,.43Z" style="fill:#fff;"/><path d="M392.15,68.02c0,.24-.19,.43-.43,.43s-.43-.19-.43-.43,.19-.43,.43-.43,.43,.19,.43,.43Z" style="fill:#fff;"/><path d="M400.12,68.02c0,.24-.19,.43-.43,.43s-.43-.19-.43-.43,.19-.43,.43-.43,.43,.19,.43,.43Z" style="fill:#fff;"/><path d="M408.08,68.02c0,.24-.19,.43-.43,.43s-.43-.19-.43-.43,.19-.43,.43-.43,.43,.19,.43,.43Z" style="fill:#fff;"/><path d="M416.05,68.02c0,.24-.19,.43-.43,.43s-.43-.19-.43-.43,.19-.43,.43-.43,.43,.19,.43,.43Z" style="fill:#fff;"/><path d="M424.02,68.02c0,.24-.19,.43-.43,.43s-.43-.19-.43-.43,.19-.43,.43-.43,.43,.19,.43,.43Z" style="fill:#fff;"/><path d="M431.98,68.02c0,.24-.19,.43-.43,.43s-.43-.19-.43-.43,.19-.43,.43-.43,.43,.19,.43,.43Z" style="fill:#fff;"/><path d="M439.95,68.02c0,.24-.19,.43-.43,.43s-.43-.19-.43-.43,.19-.43,.43-.43,.43,.19,.43,.43Z" style="fill:#fff;"/><path d="M388.16,62.44c0,.24-.19,.44-.43,.44s-.43-.19-.43-.44,.19-.43,.43-.43,.43,.19,.43,.43Z" style="fill:#fff;"/><circle cx="395.7" cy="62.44" r=".43" style="fill:#fff;"/><path d="M404.1,62.44c0,.24-.19,.44-.43,.44s-.43-.19-.43-.44,.19-.43,.43-.43,.43,.19,.43,.43Z" style="fill:#fff;"/><path d="M412.07,62.44c0,.24-.19,.44-.43,.44s-.43-.19-.43-.44,.19-.43,.43-.43,.43,.19,.43,.43Z" style="fill:#fff;"/><path d="M420.03,62.44c0,.24-.19,.44-.43,.44s-.43-.19-.43-.44,.19-.43,.43-.43,.43,.19,.43,.43Z" style="fill:#fff;"/><path d="M428,62.44c0,.24-.19,.44-.43,.44s-.43-.19-.43-.44,.19-.43,.43-.43,.43,.19,.43,.43Z" style="fill:#fff;"/><circle cx="435.53" cy="62.44" r=".43" style="fill:#fff;"/></g></g></g><g><g><rect x="61.15" y="82.12" width="33.23" height="33.23" transform="translate(176.51 20.97) rotate(90)" style="fill:#dbdbdb;"/><rect x="66.3" y="87.28" width="22.93" height="22.93" transform="translate(176.51 20.97) rotate(90)" style="fill:#fff;"/><polygon points="66.3 87.28 89.23 87.28 89.23 110.2 66.3 87.28" style="fill:#ebebeb;"/></g><g><rect x="20.29" y="82.12" width="33.23" height="33.23" transform="translate(135.64 61.84) rotate(90)" style="fill:#dbdbdb;"/><rect x="25.44" y="87.28" width="22.93" height="22.93" transform="translate(135.64 61.84) rotate(90)" style="fill:#fff;"/><polygon points="32.17 87.28 48.37 87.28 48.37 103.47 32.17 87.28" style="fill:#ebebeb;"/></g><g><rect x="35.76" y="107.84" width="43.43" height="74.37" transform="translate(202.5 87.56) rotate(90)" style="fill:#dbdbdb;"/><rect x="41.13" y="113.27" width="32.69" height="63.52" transform="translate(202.5 87.56) rotate(90)" style="fill:#fff;"/><polygon points="47.6 128.68 89.23 128.68 89.23 150.11 47.6 128.68" style="fill:#ebebeb;"/></g><g><rect x="20.29" y="0" width="74.37" height="74.37" transform="translate(94.66 -20.29) rotate(90)" style="fill:#dbdbdb;"/><rect x="25.71" y="5.43" width="63.52" height="63.51" style="fill:#fff;"/><path d="M89.24,51.16C79.58,41.56,52.22,14.33,43.43,5.43h45.81V51.16Z" style="fill:#ebebeb;"/></g></g></g><g id="Floor"><polygon points="12.35 350.66 65.67 350.41 119 350.33 225.64 350.16 332.29 350.33 385.61 350.41 438.93 350.66 385.61 350.9 332.29 350.99 225.64 351.16 119 350.99 65.67 350.9 12.35 350.66" style="fill:#263238;"/></g><g id="Shadows"><ellipse cx="319.46" cy="381.65" rx="130.22" ry="19.49" style="fill:#ebebeb;"/><ellipse cx="55.53" cy="381.65" rx="55.53" ry="12.54" style="fill:#ebebeb;"/></g><g id="Notebook"><g><rect x="47.16" y="25.43" width="229.91" height="325.22" style="fill:#6d28d9;"/><g><polygon points="75.14 350.66 58.52 350.66 47.16 25.43 63.78 25.43 75.14 350.66" style="fill:#c7c7c7;"/><polygon points="305.05 350.66 75.14 350.66 63.78 25.43 293.7 25.43 305.05 350.66" style="fill:#ebebeb;"/><g><polygon points="82.04 74.94 106.64 74.7 131.24 74.56 180.45 74.44 229.67 74.55 254.28 74.69 278.9 74.94 254.3 75.18 229.7 75.32 180.49 75.44 131.27 75.32 106.66 75.18 82.04 74.94" style="fill:#dbdbdb;"/><polygon points="82.6 90.9 107.2 90.66 131.8 90.52 181.01 90.4 230.23 90.52 254.84 90.66 279.45 90.9 254.86 91.15 230.25 91.29 181.04 91.4 131.83 91.28 107.22 91.14 82.6 90.9" style="fill:#dbdbdb;"/><polygon points="83.16 106.86 107.76 106.62 132.36 106.48 181.57 106.36 230.78 106.48 255.4 106.62 280.01 106.86 255.41 107.11 230.81 107.25 181.6 107.36 132.38 107.25 107.77 107.11 83.16 106.86" style="fill:#dbdbdb;"/><polygon points="83.72 122.82 108.31 122.58 132.92 122.44 182.12 122.33 231.34 122.44 255.95 122.58 280.57 122.82 255.97 123.07 231.37 123.21 182.16 123.32 132.94 123.21 108.33 123.07 83.72 122.82" style="fill:#dbdbdb;"/><polygon points="84.27 138.79 108.87 138.54 133.47 138.4 182.68 138.29 231.9 138.4 256.51 138.54 281.13 138.79 256.53 139.03 231.93 139.17 182.72 139.29 133.5 139.17 108.89 139.03 84.27 138.79" style="fill:#dbdbdb;"/><polygon points="84.83 154.75 109.43 154.51 134.03 154.37 183.24 154.25 232.46 154.36 257.07 154.5 281.68 154.75 257.09 154.99 232.48 155.13 183.27 155.25 134.06 155.13 109.45 154.99 84.83 154.75" style="fill:#dbdbdb;"/><polygon points="85.39 170.71 109.99 170.47 134.59 170.33 183.8 170.21 233.01 170.33 257.63 170.47 282.24 170.71 257.64 170.95 233.04 171.09 183.83 171.21 134.61 171.09 110 170.95 85.39 170.71" style="fill:#dbdbdb;"/><polygon points="85.95 186.67 110.54 186.43 135.15 186.29 184.35 186.17 233.57 186.29 258.18 186.43 282.8 186.67 258.2 186.92 233.6 187.06 184.39 187.17 135.17 187.06 110.56 186.92 85.95 186.67" style="fill:#dbdbdb;"/><polygon points="86.5 202.63 111.1 202.39 135.7 202.25 184.91 202.13 234.13 202.25 258.74 202.39 283.36 202.63 258.76 202.88 234.16 203.02 184.95 203.13 135.73 203.02 111.12 202.88 86.5 202.63" style="fill:#dbdbdb;"/><polygon points="87.06 218.6 111.66 218.35 136.26 218.21 185.47 218.1 234.69 218.21 259.3 218.35 283.91 218.6 259.32 218.84 234.71 218.98 185.5 219.1 136.29 218.98 111.68 218.84 87.06 218.6" style="fill:#dbdbdb;"/><polygon points="87.62 234.56 112.22 234.32 136.82 234.18 186.03 234.06 235.24 234.17 259.86 234.31 284.47 234.56 259.87 234.8 235.27 234.94 186.06 235.06 136.84 234.94 112.23 234.8 87.62 234.56" style="fill:#dbdbdb;"/><polygon points="88.17 250.52 112.77 250.28 137.37 250.14 186.58 250.02 235.8 250.14 260.41 250.28 285.03 250.52 260.43 250.76 235.83 250.9 186.62 251.02 137.4 250.9 112.79 250.76 88.17 250.52" style="fill:#dbdbdb;"/><polygon points="88.73 266.48 113.33 266.24 137.93 266.1 187.14 265.98 236.36 266.1 260.97 266.24 285.59 266.48 260.99 266.73 236.39 266.87 187.18 266.98 137.96 266.86 113.35 266.73 88.73 266.48" style="fill:#dbdbdb;"/><polygon points="89.29 282.44 113.89 282.2 138.49 282.06 187.7 281.94 236.92 282.06 261.53 282.2 286.14 282.44 261.54 282.69 236.94 282.83 187.73 282.94 138.52 282.83 113.9 282.69 89.29 282.44" style="fill:#dbdbdb;"/><polygon points="89.85 298.41 114.45 298.16 139.05 298.02 188.26 297.91 237.47 298.02 262.09 298.16 286.7 298.41 262.1 298.65 237.5 298.79 188.29 298.91 139.07 298.79 114.46 298.65 89.85 298.41" style="fill:#dbdbdb;"/><polygon points="90.4 314.37 115 314.12 139.6 313.99 188.81 313.87 238.03 313.98 262.64 314.12 287.26 314.37 262.66 314.61 238.06 314.75 188.85 314.87 139.63 314.75 115.02 314.61 90.4 314.37" style="fill:#dbdbdb;"/><polygon points="90.96 330.33 115.56 330.09 140.16 329.95 189.37 329.83 238.59 329.95 263.2 330.09 287.82 330.33 263.22 330.57 238.62 330.71 189.41 330.83 140.19 330.71 115.58 330.57 90.96 330.33" style="fill:#dbdbdb;"/></g><g><g><path d="M79.06,37.61c.05,1.55-1.16,2.81-2.71,2.81s-2.85-1.26-2.91-2.81,1.16-2.81,2.71-2.81,2.85,1.26,2.91,2.81Z" style="fill:#263238;"/><path d="M82.78,25.44c.58,4.78-1.01,9.69-5.09,12.38-1.77,1.21-3.62-1.75-1.84-2.89,2.56-1.75,3.7-4.78,3.69-7.81-.03-.54-.06-1.14-.15-1.68-.24-2.02-.88-4.04-2.06-5.79-.47-.7-1.73-2.42-3.92-2.42-1.18,0-2.41,.84-3.17,2.31-1.13,2.19-1.26,5.75-1.19,5.89h-3.4c-.1-1.95,.21-3.97,.79-5.86,1.07-3.1,3.25-5.65,6.78-5.79,3.19-.07,5.82,2.22,7.38,4.85,1.26,2.09,1.99,4.44,2.17,6.8Z" style="fill:#455a64;"/></g><g><path d="M97.85,37.61c.05,1.55-1.16,2.81-2.71,2.81s-2.85-1.26-2.91-2.81c-.05-1.55,1.16-2.81,2.71-2.81s2.85,1.26,2.91,2.81Z" style="fill:#263238;"/><path d="M101.57,25.44c.58,4.78-1.01,9.69-5.09,12.38-1.77,1.21-3.62-1.75-1.84-2.89,2.56-1.75,3.7-4.78,3.69-7.81-.03-.54-.06-1.14-.15-1.68-.24-2.02-.88-4.04-2.06-5.79-.47-.7-1.73-2.42-3.92-2.42-1.18,0-2.41,.84-3.17,2.31-1.13,2.19-1.26,5.75-1.19,5.89h-3.4c-.1-1.95,.21-3.97,.79-5.86,1.07-3.1,3.25-5.65,6.78-5.79,3.19-.07,5.82,2.22,7.38,4.85,1.26,2.09,1.99,4.44,2.17,6.8Z" style="fill:#455a64;"/></g><g><path d="M116.63,37.61c.05,1.55-1.16,2.81-2.71,2.81s-2.85-1.26-2.91-2.81,1.16-2.81,2.71-2.81,2.85,1.26,2.91,2.81Z" style="fill:#263238;"/><path d="M120.35,25.44c.58,4.78-1.01,9.69-5.09,12.38-1.77,1.21-3.62-1.75-1.84-2.89,2.56-1.75,3.7-4.78,3.69-7.81-.03-.54-.06-1.14-.15-1.68-.24-2.02-.88-4.04-2.06-5.79-.47-.7-1.73-2.42-3.92-2.42-1.18,0-2.41,.84-3.17,2.31-1.13,2.19-1.26,5.75-1.19,5.89h-3.4c-.1-1.95,.21-3.97,.79-5.86,1.07-3.1,3.25-5.65,6.78-5.79,3.19-.07,5.82,2.22,7.38,4.85,1.26,2.09,1.99,4.44,2.17,6.8Z" style="fill:#455a64;"/></g><g><path d="M135.42,37.61c.05,1.55-1.16,2.81-2.71,2.81s-2.85-1.26-2.91-2.81c-.05-1.55,1.16-2.81,2.71-2.81s2.85,1.26,2.91,2.81Z" style="fill:#263238;"/><path d="M139.14,25.44c.58,4.78-1.01,9.69-5.09,12.38-1.77,1.21-3.62-1.75-1.84-2.89,2.56-1.75,3.7-4.78,3.69-7.81-.03-.54-.06-1.14-.15-1.68-.24-2.02-.88-4.04-2.06-5.79-.47-.7-1.73-2.42-3.92-2.42-1.18,0-2.41,.84-3.17,2.31-1.13,2.19-1.26,5.75-1.19,5.89h-3.4c-.1-1.95,.21-3.97,.79-5.86,1.07-3.1,3.25-5.65,6.78-5.79,3.19-.07,5.82,2.22,7.38,4.85,1.26,2.09,1.99,4.44,2.17,6.8Z" style="fill:#455a64;"/></g><g><path d="M154.21,37.61c.05,1.55-1.16,2.81-2.71,2.81s-2.85-1.26-2.91-2.81c-.05-1.55,1.16-2.81,2.71-2.81s2.85,1.26,2.91,2.81Z" style="fill:#263238;"/><path d="M157.93,25.44c.58,4.78-1.01,9.69-5.09,12.38-1.77,1.21-3.62-1.75-1.84-2.89,2.56-1.75,3.7-4.78,3.69-7.81-.03-.54-.06-1.14-.15-1.68-.24-2.02-.88-4.04-2.06-5.79-.47-.7-1.73-2.42-3.92-2.42-1.18,0-2.41,.84-3.17,2.31-1.13,2.19-1.26,5.75-1.19,5.89h-3.4c-.1-1.95,.21-3.97,.79-5.86,1.07-3.1,3.25-5.65,6.78-5.79,3.19-.07,5.82,2.22,7.38,4.85,1.26,2.09,1.99,4.44,2.17,6.8Z" style="fill:#455a64;"/></g><g><path d="M173,37.61c.05,1.55-1.16,2.81-2.71,2.81s-2.85-1.26-2.91-2.81,1.16-2.81,2.71-2.81,2.85,1.26,2.91,2.81Z" style="fill:#263238;"/><path d="M176.72,25.44c.58,4.78-1.01,9.69-5.09,12.38-1.77,1.21-3.62-1.75-1.84-2.89,2.56-1.75,3.7-4.78,3.69-7.81-.03-.54-.06-1.14-.15-1.68-.24-2.02-.88-4.04-2.06-5.79-.47-.7-1.73-2.42-3.92-2.42-1.18,0-2.41,.84-3.17,2.31-1.13,2.19-1.26,5.75-1.19,5.89h-3.4c-.1-1.95,.21-3.97,.79-5.86,1.07-3.1,3.25-5.65,6.78-5.79,3.19-.07,5.82,2.22,7.38,4.85,1.26,2.09,1.99,4.44,2.17,6.8Z" style="fill:#455a64;"/></g><g><path d="M191.79,37.61c.05,1.55-1.16,2.81-2.71,2.81s-2.85-1.26-2.91-2.81,1.16-2.81,2.71-2.81,2.85,1.26,2.91,2.81Z" style="fill:#263238;"/><path d="M195.51,25.44c.58,4.78-1.01,9.69-5.09,12.38-1.77,1.21-3.62-1.75-1.84-2.89,2.56-1.75,3.7-4.78,3.69-7.81-.03-.54-.06-1.14-.15-1.68-.24-2.02-.88-4.04-2.06-5.79-.47-.7-1.73-2.42-3.92-2.42-1.18,0-2.41,.84-3.17,2.31-1.13,2.19-1.26,5.75-1.19,5.89h-3.4c-.1-1.95,.21-3.97,.79-5.86,1.07-3.1,3.25-5.65,6.78-5.79,3.19-.07,5.82,2.22,7.38,4.85,1.26,2.09,1.99,4.44,2.17,6.8Z" style="fill:#455a64;"/></g><g><path d="M210.58,37.61c.05,1.55-1.16,2.81-2.71,2.81s-2.85-1.26-2.91-2.81c-.05-1.55,1.16-2.81,2.71-2.81s2.85,1.26,2.91,2.81Z" style="fill:#263238;"/><path d="M214.3,25.44c.58,4.78-1.01,9.69-5.09,12.38-1.77,1.21-3.62-1.75-1.84-2.89,2.56-1.75,3.7-4.78,3.69-7.81-.03-.54-.06-1.14-.15-1.68-.24-2.02-.88-4.04-2.06-5.79-.47-.7-1.73-2.42-3.92-2.42-1.18,0-2.41,.84-3.17,2.31-1.13,2.19-1.26,5.75-1.19,5.89h-3.4c-.1-1.95,.21-3.97,.79-5.86,1.07-3.1,3.25-5.65,6.78-5.79,3.19-.07,5.82,2.22,7.38,4.85,1.26,2.09,1.99,4.44,2.17,6.8Z" style="fill:#455a64;"/></g><g><path d="M229.37,37.61c.05,1.55-1.16,2.81-2.71,2.81s-2.85-1.26-2.91-2.81c-.05-1.55,1.16-2.81,2.71-2.81s2.85,1.26,2.91,2.81Z" style="fill:#263238;"/><path d="M233.09,25.44c.58,4.78-1.01,9.69-5.09,12.38-1.77,1.21-3.62-1.75-1.84-2.89,2.56-1.75,3.7-4.78,3.69-7.81-.03-.54-.06-1.14-.15-1.68-.24-2.02-.88-4.04-2.06-5.79-.47-.7-1.73-2.42-3.92-2.42-1.18,0-2.41,.84-3.17,2.31-1.13,2.19-1.26,5.75-1.19,5.89h-3.4c-.1-1.95,.21-3.97,.79-5.86,1.07-3.1,3.25-5.65,6.78-5.79,3.19-.07,5.82,2.22,7.38,4.85,1.26,2.09,1.99,4.44,2.17,6.8Z" style="fill:#455a64;"/></g><g><path d="M248.15,37.61c.05,1.55-1.16,2.81-2.71,2.81s-2.85-1.26-2.91-2.81,1.16-2.81,2.71-2.81,2.85,1.26,2.91,2.81Z" style="fill:#263238;"/><path d="M251.87,25.44c.58,4.78-1.01,9.69-5.09,12.38-1.77,1.21-3.62-1.75-1.84-2.89,2.56-1.75,3.7-4.78,3.69-7.81-.03-.54-.06-1.14-.15-1.68-.24-2.02-.88-4.04-2.06-5.79-.47-.7-1.73-2.42-3.92-2.42-1.18,0-2.41,.84-3.17,2.31-1.13,2.19-1.26,5.75-1.19,5.89h-3.4c-.1-1.95,.21-3.97,.79-5.86,1.07-3.1,3.25-5.65,6.78-5.79,3.19-.07,5.82,2.22,7.38,4.85,1.26,2.09,1.99,4.44,2.17,6.8Z" style="fill:#455a64;"/></g><g><path d="M266.94,37.61c.05,1.55-1.16,2.81-2.71,2.81s-2.85-1.26-2.91-2.81c-.05-1.55,1.16-2.81,2.71-2.81s2.85,1.26,2.91,2.81Z" style="fill:#263238;"/><path d="M270.66,25.44c.58,4.78-1.01,9.69-5.09,12.38-1.77,1.21-3.62-1.75-1.84-2.89,2.56-1.75,3.7-4.78,3.69-7.81-.03-.54-.06-1.14-.15-1.68-.24-2.02-.88-4.04-2.06-5.79-.47-.7-1.73-2.42-3.92-2.42-1.18,0-2.41,.84-3.17,2.31-1.13,2.19-1.26,5.75-1.19,5.89h-3.4c-.1-1.95,.21-3.97,.79-5.86,1.07-3.1,3.25-5.65,6.78-5.79,3.19-.07,5.82,2.22,7.38,4.85,1.26,2.09,1.99,4.44,2.17,6.8Z" style="fill:#455a64;"/></g><g><path d="M285.73,37.61c.05,1.55-1.16,2.81-2.71,2.81s-2.85-1.26-2.91-2.81,1.16-2.81,2.71-2.81,2.85,1.26,2.91,2.81Z" style="fill:#263238;"/><path d="M289.45,25.44c.58,4.78-1.01,9.69-5.09,12.38-1.77,1.21-3.62-1.75-1.84-2.89,2.56-1.75,3.7-4.78,3.69-7.81-.03-.54-.06-1.14-.15-1.68-.24-2.02-.88-4.04-2.06-5.79-.47-.7-1.73-2.42-3.92-2.42-1.18,0-2.41,.84-3.17,2.31-1.13,2.19-1.26,5.75-1.19,5.89h-3.4c-.1-1.95,.21-3.97,.79-5.86,1.07-3.1,3.25-5.65,6.78-5.79,3.19-.07,5.82,2.22,7.38,4.85,1.26,2.09,1.99,4.44,2.17,6.8Z" style="fill:#455a64;"/></g></g><g><path d="M129.37,65.52h-2.55l.3,8.54c.02,.5-.35,.88-.85,.88s-.89-.38-.91-.88l-.3-8.54h-2.53c-.5,0-.89-.42-.91-.9-.02-.5,.35-.88,.85-.88h6.83c.48,0,.89,.38,.91,.88,.02,.48-.37,.9-.85,.9Z" style="fill:#263238;"/><path d="M133.19,74.06l-.33-9.44c-.02-.5,.35-.88,.85-.88s.91,.38,.93,.88l.13,3.84h4.15l-.13-3.84c-.02-.5,.35-.88,.85-.88s.91,.38,.93,.88l.33,9.44c.02,.5-.37,.88-.87,.88s-.89-.38-.91-.88l-.13-3.84h-4.15l.13,3.84c.02,.5-.37,.88-.87,.88s-.89-.38-.91-.88Z" style="fill:#263238;"/><path d="M143.52,64.62c-.02-.5,.35-.88,.85-.88s.91,.38,.93,.88l.33,9.44c.02,.5-.39,.88-.87,.88s-.89-.38-.91-.88l-.33-9.44Z" style="fill:#263238;"/><path d="M150.37,74.06c.02,.48-.37,.88-.83,.88-.5,0-.89-.4-.91-.88l-.32-9.29v-.02c-.03-.27,.09-.56,.33-.74,.39-.27,.94-.19,1.22,.19l5.42,7.15-.23-6.59c-.02-.46,.35-.86,.83-.86s.89,.4,.91,.86l.32,9.29c.02,.48-.37,.88-.85,.88-.26,0-.5-.13-.67-.32-.03-.03-.07-.06-.08-.1l-5.37-7.1,.23,6.64Z" style="fill:#263238;"/><path d="M159.48,69.2c-.11-3.22,2.46-5.78,5.7-5.78,1.36,0,2.67,.46,3.69,1.25,.43,.3,.51,.9,.22,1.3-.29,.38-.88,.46-1.29,.14-.71-.53-1.6-.86-2.56-.86-1.15,0-2.15,.43-2.84,1.17-.73,.72-1.14,1.7-1.1,2.78,.04,1.06,.52,2.03,1.3,2.75,.75,.74,1.77,1.17,2.92,1.17,.8,0,1.54-.24,2.17-.61l-.08-2.19h-2.29c-.5,0-.93-.42-.94-.91-.02-.51,.38-.9,.88-.9h3.19c.51,0,.94,.38,.96,.9l.12,3.54c0,.11-.03,.18-.04,.27-.02,.03-.01,.05-.03,.08v.02c-.04,.14-.13,.27-.29,.38-.98,.78-2.23,1.25-3.59,1.25-3.25,0-6-2.54-6.11-5.74Z" style="fill:#263238;"/><path d="M172.76,72.16c.28-.35,.8-.4,1.16-.11,.72,.58,1.96,1.25,3.1,1.23,.8,0,1.51-.24,1.98-.59,.47-.35,.66-.75,.65-1.15,0-.21-.06-.35-.16-.51-.1-.16-.25-.32-.5-.48-.48-.3-1.27-.58-2.22-.75h-.03c-.76-.14-1.47-.34-2.09-.62-.62-.29-1.16-.69-1.53-1.25-.25-.38-.4-.83-.41-1.31-.03-.96,.48-1.79,1.2-2.34,.73-.54,1.7-.85,2.74-.85,1.54,0,2.7,.75,3.53,1.28,.38,.26,.51,.77,.26,1.14-.23,.38-.73,.5-1.13,.24-.84-.54-1.64-1.02-2.61-1.02-.72,0-1.35,.22-1.77,.54-.42,.32-.58,.67-.57,1.01,0,.19,.04,.32,.13,.45,.08,.13,.23,.27,.45,.42,.43,.29,1.16,.54,2.03,.7h.03c.82,.16,1.58,.37,2.23,.67,.67,.32,1.26,.74,1.65,1.33,.25,.38,.41,.86,.43,1.36,.04,1.02-.51,1.9-1.29,2.48-.76,.58-1.79,.91-2.93,.91-1.73-.02-3.22-.88-4.15-1.6-.36-.29-.43-.82-.17-1.17Z" style="fill:#263238;"/><path d="M195.2,65.52h-2.55l.3,8.54c.02,.5-.35,.88-.85,.88s-.89-.38-.91-.88l-.3-8.54h-2.53c-.5,0-.9-.42-.91-.9-.02-.5,.35-.88,.85-.88h6.83c.48,0,.89,.38,.91,.88,.02,.48-.37,.9-.85,.9Z" style="fill:#263238;"/><path d="M206.66,65.13c1.03,1.06,1.7,2.46,1.76,4.05,.06,1.58-.52,3.01-1.48,4.05-.91,1.04-2.29,1.71-3.77,1.71s-2.97-.67-3.98-1.71c-1.03-1.04-1.67-2.46-1.73-4.05-.06-1.58,.49-2.99,1.44-4.05,.94-1.06,2.33-1.71,3.86-1.71s2.9,.66,3.88,1.71Zm-.07,4.05c-.04-1.09-.51-2.1-1.19-2.8-.7-.72-1.61-1.14-2.57-1.14-1.02,0-1.91,.42-2.55,1.14-.65,.7-1.03,1.71-.99,2.8,.04,1.09,.49,2.1,1.19,2.78,.7,.72,1.61,1.15,2.63,1.15,.96,0,1.84-.43,2.49-1.15,.63-.69,1.03-1.7,.99-2.78Z" style="fill:#263238;"/><path d="M216.53,74.06l-.33-9.44c-.02-.5,.35-.88,.85-.88h1.89c3.09,0,5.67,2.51,5.78,5.58,.11,3.1-2.3,5.61-5.39,5.61h-1.89c-.5,0-.89-.4-.91-.88Zm1.75-.9h.99c2.11-.02,3.75-1.71,3.68-3.84-.07-2.1-1.83-3.81-3.94-3.81h-.99l.27,7.65Z" style="fill:#263238;"/><path d="M236.32,65.13c1.03,1.06,1.7,2.46,1.76,4.05,.05,1.58-.52,3.01-1.48,4.05-.91,1.04-2.29,1.71-3.77,1.71s-2.97-.67-3.98-1.71c-1.03-1.04-1.67-2.46-1.73-4.05-.06-1.58,.49-2.99,1.44-4.05,.94-1.06,2.33-1.71,3.86-1.71s2.9,.66,3.88,1.71Zm-.07,4.05c-.04-1.09-.51-2.1-1.19-2.8-.7-.72-1.61-1.14-2.57-1.14-1.02,0-1.91,.42-2.55,1.14-.65,.7-1.03,1.71-.99,2.8,.04,1.09,.49,2.1,1.19,2.78,.7,.72,1.61,1.15,2.63,1.15,.96,0,1.84-.43,2.49-1.15,.63-.69,1.03-1.7,.99-2.78Z" style="fill:#263238;"/></g><g><path d="M116.06,104.56h-11.81l-.41-11.81h11.81l.41,11.81Zm-10.85-1h9.81l-.34-9.81h-9.81l.34,9.81Z" style="fill:#263238;"/><g><path d="M128.99,104.06h-.03c-.1,0-.2-.09-.2-.2l-.35-10.11c0-.11,.08-.2,.19-.2s.18,.09,.19,.2l.35,9.93h5.41c.12,0,.2,.08,.2,.18,0,.11-.07,.2-.19,.2h-5.56Z" style="fill:#263238;"/><path d="M142.93,96.91l.24,6.96c0,.12-.07,.2-.17,.2-.12,0-.2-.08-.2-.2l-.06-1.83c-.53,1.2-1.67,2.03-3.02,2.03-1.92,0-3.52-1.67-3.59-3.68-.07-2.01,1.42-3.68,3.34-3.68,1.35,0,2.55,.84,3.16,2.03l-.06-1.83c0-.09,.07-.2,.19-.2,.1,0,.18,.11,.19,.2Zm-.25,3.48c-.06-1.82-1.51-3.29-3.2-3.29s-3.04,1.47-2.98,3.29c.06,1.83,1.51,3.3,3.21,3.3s3.04-1.47,2.97-3.3Z" style="fill:#263238;"/><path d="M145.93,96.91c0-.1,.07-.2,.19-.2,.09,0,.18,.09,.19,.2l.15,4.19c.05,1.44,1.25,2.6,2.66,2.6s2.54-1.16,2.49-2.6l-.15-4.19c0-.1,.1-.2,.19-.2,.11,0,.2,.09,.2,.2l.15,4.19c.06,1.65-1.23,2.97-2.87,2.97s-2.99-1.32-3.04-2.97l-.15-4.19Z" style="fill:#263238;"/><path d="M160.56,99.68c-.05-1.46-1.26-2.6-2.67-2.6s-2.55,1.14-2.5,2.6l.15,4.19s-.01,.09-.04,.12c-.03,.04-.07,.08-.13,.08h-.06s-.03-.02-.05-.03c-.02,0-.03-.01-.05-.03t-.02-.03s-.03-.05-.03-.08v-.03s-.15-4.19-.15-4.19v-.12s-.1-2.67-.1-2.67c0-.12,.08-.18,.19-.18s.18,.06,.19,.18l.05,1.35c.48-.92,1.43-1.53,2.54-1.53,1.62,0,3,1.32,3.06,2.97l.15,4.19c0,.11-.08,.2-.19,.2-.12,0-.18-.09-.19-.2l-.15-4.19Z" style="fill:#263238;"/><path d="M170.48,104.06c-.09,0-.18-.09-.19-.2l-.06-1.81c-.54,1.19-1.72,2.01-3.1,2.01-1.98,0-3.63-1.67-3.7-3.69-.07-2.01,1.46-3.66,3.44-3.66,1.38,0,2.61,.83,3.24,2.03l-.17-4.95c0-.1,.08-.23,.17-.23,.12,0,.2,.12,.2,.23l.23,6.44v.15s.01,.18,.01,.18l.12,3.32c0,.11-.07,.2-.19,.2Zm-.31-3.83c-.12-1.76-1.6-3.15-3.28-3.15s-3.14,1.47-3.08,3.29c.06,1.83,1.56,3.32,3.31,3.32s3.11-1.49,3.05-3.32v-.14Z" style="fill:#263238;"/><path d="M173.85,100.43s-.02-.04,0-.09l-.12-3.44c0-.1,.08-.2,.17-.2,.12,0,.18,.09,.19,.2l.09,2.49c.11-.27,.25-.57,.43-.87,.54-.86,1.45-1.82,2.86-1.82,.12,0,.2,.09,.2,.2,0,.11-.07,.2-.19,.2-.93,0-1.62,.45-2.09,1.01-.5,.6-.84,1.35-1.02,1.82-.11,.33-.16,.51-.16,.51l.12,3.44c0,.12-.05,.2-.17,.2-.09,0-.18-.08-.19-.2l-.12-3.44Z" style="fill:#263238;"/><path d="M179.68,96.91c0-.1,.07-.2,.19-.2,.09,0,.18,.09,.19,.2l.15,4.19c.05,1.41,1.24,2.57,2.67,2.57s2.44-1.1,2.45-2.46l-.15-4.29v-.03s.01-.05,.03-.08c0,0,0-.02,.01-.02l.04-.04s.06-.03,.1-.03h.03s.03,.02,.05,.02l.05,.05s.02,.01,.02,.01c.03,.03,.05,.08,.05,.12l.24,6.74c.07,1.89-1.41,3.45-3.33,3.45-.54,0-1.05-.13-1.51-.36-.11-.05-.14-.15-.08-.26,.03-.09,.15-.12,.22-.09,.43,.21,.87,.33,1.36,.33,1.71,0,3.03-1.38,2.97-3.08l-.04-1.11c-.45,.9-1.39,1.5-2.48,1.5-1.63,0-3-1.32-3.06-2.94l-.15-4.19Z" style="fill:#263238;"/></g></g><g><path d="M117.18,136.65h-11.81l-.41-11.81h11.81l.41,11.81Zm-10.85-1h9.81l-.34-9.81h-9.81l.34,9.81Z" style="fill:#263238;"/><g><path d="M129.3,134.37c.06-.06,.16-.08,.24-.02,.85,.66,2.24,1.44,3.7,1.44,.97,0,1.83-.29,2.45-.75,.61-.47,.97-1.08,.94-1.76-.02-.68-.39-1.19-1.02-1.61-.63-.42-1.52-.71-2.58-.89l-.03-.02c-1-.18-1.88-.47-2.52-.89-.65-.42-1.07-1.01-1.1-1.76-.04-1.5,1.54-2.64,3.46-2.64,1.37,0,2.42,.68,3.28,1.23,.08,.04,.11,.15,.05,.24-.04,.08-.15,.09-.22,.05-.87-.56-1.84-1.17-3.1-1.17-.9,0-1.7,.27-2.27,.69-.56,.42-.88,.99-.86,1.61,.02,.62,.35,1.08,.94,1.47,.58,.39,1.42,.66,2.38,.84h.03c1.09,.21,2.01,.5,2.72,.95,.69,.45,1.15,1.08,1.18,1.89,.04,1.62-1.66,2.85-3.73,2.85-1.58,0-3.03-.83-3.91-1.52-.08-.06-.1-.18-.04-.25Z" style="fill:#263238;"/><path d="M145.15,131.79c-.05-1.44-1.25-2.6-2.69-2.6s-2.51,1.11-2.52,2.49l.15,4.28c0,.08-.03,.14-.07,.17-.03,.01-.06,.03-.07,.03h-.03s-.09-.02-.14-.05c-.03-.03-.06-.08-.06-.12v-.03s-.15-4.17-.15-4.17v-.12s-.21-5.82-.21-5.82c0-.11,.08-.2,.19-.2s.18,.09,.19,.2l.16,4.5c.48-.91,1.43-1.55,2.56-1.55,1.65,0,3.02,1.34,3.07,2.99l.15,4.17c0,.1-.08,.2-.17,.2-.12,0-.2-.09-.2-.2l-.15-4.17Z" style="fill:#263238;"/><path d="M151.78,128.8c1.92,0,3.54,1.65,3.61,3.68,.07,2.01-1.43,3.68-3.35,3.68s-3.52-1.67-3.59-3.68c-.07-2.03,1.42-3.68,3.34-3.68Zm.24,6.98c1.7,0,3.05-1.49,2.99-3.3-.06-1.83-1.52-3.3-3.22-3.3s-3.04,1.47-2.97,3.3c.06,1.82,1.51,3.3,3.21,3.3Z" style="fill:#263238;"/><path d="M158.17,132.58v-.15s-.01-.15-.01-.15l-.11-3.29c0-.12,.07-.19,.19-.19,.1,0,.18,.07,.19,.19l.06,1.82c.53-1.2,1.7-2.01,3.06-2.01,1.98,0,3.6,1.62,3.67,3.63,.07,2.01-1.43,3.65-3.41,3.65-1.36,0-2.59-.83-3.2-2l.18,5.09c0,.12-.07,.2-.17,.2-.12,0-.2-.08-.2-.2l-.23-6.59Zm.37-.15c.06,1.8,1.54,3.26,3.25,3.26s3.1-1.46,3.04-3.26c-.06-1.79-1.54-3.26-3.26-3.26s-3.03,1.4-3.03,3.12v.14Z" style="fill:#263238;"/><path d="M175.33,125.82c0,.11-.08,.2-.19,.2-.54,0-.88,.12-1.08,.36-.22,.24-.32,.68-.3,1.38l.03,.99h1.26c.1,0,.18,.09,.19,.2,0,.11-.07,.2-.17,.2h-1.26l.24,6.81c0,.11-.08,.2-.19,.2s-.2-.09-.2-.2l-.24-6.81h-1.2c-.1,0-.2-.09-.2-.2,0-.11,.08-.2,.19-.2h1.2l-.03-.99c-.03-.75,.09-1.28,.39-1.64,.32-.36,.78-.48,1.36-.48,.1,0,.2,.08,.2,.18Z" style="fill:#263238;"/><path d="M180.81,128.8c1.92,0,3.54,1.65,3.61,3.68,.07,2.01-1.43,3.68-3.35,3.68s-3.52-1.67-3.59-3.68c-.07-2.03,1.42-3.68,3.34-3.68Zm.24,6.98c1.7,0,3.05-1.49,2.99-3.3-.06-1.83-1.52-3.3-3.22-3.3s-3.04,1.47-2.97,3.3c.06,1.82,1.51,3.3,3.21,3.3Z" style="fill:#263238;"/><path d="M186.91,132.52s-.02-.05,0-.09l-.12-3.44c0-.1,.08-.19,.17-.19,.12,0,.18,.09,.19,.19l.09,2.49c.11-.27,.25-.57,.43-.87,.54-.85,1.45-1.82,2.86-1.82,.12,0,.2,.09,.2,.19,0,.11-.07,.2-.19,.2-.93,0-1.62,.45-2.09,1.01-.5,.6-.84,1.35-1.02,1.82-.11,.33-.16,.51-.16,.51l.12,3.44c0,.12-.05,.2-.17,.2-.09,0-.18-.08-.19-.2l-.12-3.44Z" style="fill:#263238;"/><path d="M204.29,129l.23,6.74c.07,1.92-1.42,3.48-3.34,3.48-.55,0-1.05-.13-1.54-.36-.09-.06-.13-.16-.08-.26,.04-.09,.15-.12,.25-.09,.43,.21,.87,.33,1.36,.33,1.71-.03,3.04-1.4,2.98-3.11l-.06-1.61c-.51,1.18-1.67,2.03-3.02,2.03-1.92,0-3.52-1.67-3.59-3.68-.07-2.03,1.42-3.68,3.34-3.68,1.35,0,2.56,.84,3.16,2.01l-.06-1.82c0-.1,.08-.19,.17-.19,.12,0,.2,.09,.2,.19Zm-3.46,.18c-1.69,0-3.04,1.47-2.97,3.3,.06,1.83,1.51,3.29,3.2,3.29s3.04-1.46,2.97-3.29c-.06-1.83-1.51-3.3-3.21-3.3Z" style="fill:#263238;"/><path d="M207.89,132.52s-.02-.05,0-.09l-.12-3.44c0-.1,.08-.19,.17-.19,.12,0,.18,.09,.19,.19l.09,2.49c.11-.27,.25-.57,.43-.87,.54-.85,1.45-1.82,2.86-1.82,.12,0,.2,.09,.2,.19,0,.11-.07,.2-.19,.2-.93,0-1.62,.45-2.09,1.01-.5,.6-.84,1.35-1.02,1.82-.11,.33-.16,.51-.16,.51l.12,3.44c0,.12-.05,.2-.17,.2-.09,0-.18-.08-.19-.2l-.12-3.44Z" style="fill:#263238;"/><path d="M217.08,128.8c1.92,0,3.54,1.65,3.61,3.68,.07,2.01-1.43,3.68-3.35,3.68s-3.52-1.67-3.59-3.68c-.07-2.03,1.42-3.68,3.34-3.68Zm.24,6.98c1.7,0,3.05-1.49,2.99-3.3-.06-1.83-1.52-3.3-3.22-3.3s-3.04,1.47-2.97,3.3c.06,1.82,1.51,3.3,3.21,3.3Z" style="fill:#263238;"/><path d="M226.59,128.8c.87,0,1.7,.29,2.37,.79,.08,.08,.08,.2,.03,.29-.06,.07-.16,.07-.25,.01-.6-.45-1.35-.72-2.12-.72-1.9,0-3.35,1.49-3.29,3.3,.06,1.82,1.62,3.3,3.52,3.3,.78,0,1.5-.29,2.07-.73,.07-.05,.19-.03,.26,.04,.06,.09,.07,.2,0,.27-.63,.5-1.44,.8-2.31,.8-2.09-.02-3.84-1.67-3.91-3.68-.07-2.03,1.57-3.68,3.65-3.68Z" style="fill:#263238;"/><path d="M231.28,132.48c-.04-2.04,1.48-3.68,3.44-3.68s3.44,1.49,3.64,3.39v.04s0,.02,0,.02c-.01,.09-.08,.18-.17,.18h-6.54v.04c.06,1.8,1.54,3.29,3.31,3.3,1.11,0,2.06-.6,2.59-1.5,.06-.09,.16-.09,.27-.05,.08,.05,.11,.16,.05,.25-.6,.98-1.67,1.67-2.9,1.67-1.97-.03-3.6-1.67-3.7-3.68Zm.38-.41h6.33c-.25-1.64-1.65-2.88-3.25-2.88s-2.94,1.25-3.08,2.88Z" style="fill:#263238;"/><path d="M240.64,132.52s-.02-.05,0-.09l-.12-3.44c0-.1,.08-.19,.17-.19,.12,0,.18,.09,.19,.19l.09,2.49c.11-.27,.25-.57,.43-.87,.54-.85,1.45-1.82,2.86-1.82,.12,0,.2,.09,.2,.19,0,.11-.07,.2-.19,.2-.93,0-1.62,.45-2.09,1.01-.5,.6-.84,1.35-1.02,1.82-.11,.33-.16,.51-.16,.51l.12,3.44c0,.12-.05,.2-.17,.2-.09,0-.18-.08-.19-.2l-.12-3.44Z" style="fill:#263238;"/><path d="M247.02,126.63c0-.12,.07-.2,.19-.2,.09,0,.18,.08,.19,.2v.36c.02,.09-.07,.18-.16,.18-.12,0-.2-.09-.2-.18v-.36Zm.07,2.36c0-.12,.07-.18,.19-.18,.09,0,.18,.06,.19,.18l.24,6.98c0,.1-.08,.2-.17,.2-.12,0-.2-.09-.2-.2l-.24-6.98Z" style="fill:#263238;"/><path d="M250.9,132.48c-.04-2.04,1.48-3.68,3.44-3.68s3.44,1.49,3.64,3.39v.02s0,.03,0,.03v.02c-.01,.09-.08,.18-.17,.18h-6.54v.04c.06,1.8,1.54,3.29,3.31,3.3,1.11,0,2.06-.6,2.59-1.5,.06-.09,.16-.09,.27-.05,.08,.05,.11,.16,.05,.25-.6,.98-1.67,1.67-2.9,1.67-1.97-.03-3.6-1.67-3.7-3.68Zm.38-.41h6.33c-.25-1.64-1.65-2.88-3.25-2.88s-2.94,1.25-3.08,2.88Z" style="fill:#263238;"/><path d="M260.07,134.86c.06-.11,.17-.12,.27-.03,.56,.44,1.49,.95,2.46,.95,.64,0,1.19-.2,1.6-.5,.41-.3,.63-.71,.62-1.14-.03-.42-.24-.75-.65-1.04-.43-.27-1.01-.46-1.72-.6h-.04c-.68-.1-1.29-.29-1.73-.6-.44-.29-.76-.72-.78-1.25-.02-1.07,1.09-1.86,2.44-1.86,.93,0,1.67,.47,2.25,.85,.09,.06,.11,.18,.07,.26-.06,.09-.18,.12-.27,.06-.58-.38-1.23-.8-2.04-.8-.61,0-1.15,.18-1.51,.47-.36,.29-.56,.63-.55,1.02,.01,.39,.2,.68,.59,.93,.38,.26,.95,.44,1.61,.57h.01c.74,.15,1.38,.31,1.87,.63,.48,.32,.81,.78,.83,1.35,.03,1.16-1.16,2.01-2.58,2.01-1.11,0-2.1-.57-2.71-1.05-.09-.06-.1-.16-.04-.24Z" style="fill:#263238;"/></g></g><g><path d="M118.3,168.74h-11.81l-.41-11.81h11.81l.41,11.81Zm-10.85-1h9.81l-.34-9.81h-9.81l.34,9.81Z" style="fill:#263238;"/><g><path d="M141.01,168.23c-.06-.02-.09-.06-.11-.12l-3.19-7.04-2.72,7.05s-.06,.09-.1,.1h-.02s-.03,.02-.04,.02h-.02s-.04,0-.06-.02h-.01s-.03-.02-.05-.03t-.02-.02s-.05-.06-.05-.09l-4.58-10.07c-.06-.09,0-.21,.08-.24,.09-.04,.21,0,.26,.09l4.4,9.69,2.7-6.98c.03-.09,.12-.14,.19-.14,.07-.02,.17,.04,.21,.14l3.17,6.98,3.74-9.69c.06-.09,.15-.14,.25-.09,.11,.03,.16,.15,.11,.24l-3.89,10.1s-.04,.04-.06,.08c-.01,0-.03,.01-.03,.01-.03,.02-.06,.03-.09,.03h-.03s-.03,0-.05-.02h-.02Z" style="fill:#263238;"/><path d="M152.2,161.09l.24,6.96c0,.12-.07,.2-.17,.2-.12,0-.2-.08-.2-.2l-.06-1.83c-.53,1.2-1.67,2.03-3.02,2.03-1.92,0-3.52-1.67-3.59-3.68-.07-2.01,1.42-3.68,3.34-3.68,1.35,0,2.55,.84,3.16,2.03l-.06-1.83c0-.09,.07-.2,.19-.2,.1,0,.18,.11,.19,.2Zm-.25,3.48c-.06-1.82-1.51-3.29-3.2-3.29s-3.04,1.47-2.97,3.29c.06,1.83,1.51,3.3,3.2,3.3s3.04-1.47,2.97-3.3Z" style="fill:#263238;"/><path d="M154.99,166.95c.06-.11,.18-.12,.27-.03,.56,.43,1.49,.95,2.46,.95,.64,0,1.19-.19,1.6-.5,.41-.3,.64-.71,.62-1.14-.03-.42-.24-.75-.65-1.04-.43-.27-1.01-.47-1.72-.6h-.04c-.68-.11-1.29-.29-1.73-.6-.44-.28-.76-.72-.78-1.25-.02-1.07,1.09-1.86,2.44-1.86,.93,0,1.67,.47,2.25,.86,.09,.06,.11,.18,.07,.26-.06,.09-.18,.12-.27,.06-.58-.38-1.23-.8-2.04-.8-.61,0-1.15,.18-1.51,.46-.37,.29-.56,.63-.55,1.02,.01,.39,.2,.67,.59,.93,.38,.25,.95,.44,1.61,.57h.01c.74,.15,1.38,.32,1.87,.63,.48,.32,.81,.78,.83,1.35,.02,1.15-1.16,2.01-2.58,2.01-1.11,0-2.1-.57-2.71-1.05-.09-.06-.1-.16-.04-.24Z" style="fill:#263238;"/><path d="M168.41,163.88c-.05-1.44-1.25-2.6-2.69-2.6s-2.51,1.11-2.52,2.49l.15,4.28c0,.08-.03,.14-.07,.16-.03,.02-.06,.03-.07,.03h-.03s-.09-.02-.14-.04c-.03-.03-.06-.08-.06-.12v-.03s-.15-4.17-.15-4.17v-.12s-.21-5.82-.21-5.82c0-.11,.08-.2,.19-.2s.18,.09,.19,.2l.16,4.5c.48-.92,1.43-1.55,2.56-1.55,1.65,0,3.02,1.34,3.07,2.99l.15,4.17c0,.11-.08,.2-.17,.2-.12,0-.2-.09-.2-.2l-.15-4.17Z" style="fill:#263238;"/><path d="M178.89,161.09c0,.11-.08,.18-.19,.18h-1.2l.2,5.85c.01,.42,.37,.77,.79,.77,.1,0,.2,.07,.2,.18,0,.11-.08,.2-.19,.2-.63,0-1.16-.51-1.18-1.14l-.2-5.85h-1.26c-.1,0-.2-.07-.2-.18,0-.1,.08-.2,.19-.2h1.26l-.1-2.94c0-.11,.07-.2,.17-.2s.2,.09,.2,.2l.1,2.94h1.2c.1,0,.2,.09,.2,.2Z" style="fill:#263238;"/><path d="M187.81,163.88c-.05-1.44-1.25-2.6-2.68-2.6s-2.51,1.11-2.52,2.49l.15,4.28c0,.08-.03,.14-.07,.16-.03,.02-.06,.03-.07,.03h-.03s-.09-.02-.14-.04c-.03-.03-.06-.08-.06-.12v-.03s-.15-4.17-.15-4.17v-.12s-.21-5.82-.21-5.82c0-.11,.08-.2,.19-.2s.18,.09,.19,.2l.16,4.5c.48-.92,1.43-1.55,2.56-1.55,1.65,0,3.02,1.34,3.07,2.99l.15,4.17c0,.11-.08,.2-.17,.2-.12,0-.2-.09-.2-.2l-.15-4.17Z" style="fill:#263238;"/><path d="M190.92,164.57c-.04-2.04,1.48-3.68,3.44-3.68s3.44,1.49,3.64,3.39v.02s0,.03,0,.03v.02c-.01,.09-.08,.18-.17,.18h-6.54v.04c.06,1.8,1.54,3.29,3.31,3.3,1.11,0,2.06-.6,2.59-1.5,.06-.09,.16-.09,.27-.04,.08,.04,.11,.16,.05,.25-.6,.98-1.67,1.67-2.9,1.67-1.97-.03-3.6-1.67-3.7-3.68Zm.37-.41h6.33c-.25-1.64-1.65-2.88-3.25-2.88s-2.94,1.25-3.08,2.88Z" style="fill:#263238;"/><path d="M211.63,168.24c-.09,0-.18-.09-.19-.2l-.06-1.82c-.54,1.19-1.72,2.01-3.1,2.01-1.98,0-3.63-1.67-3.7-3.69-.07-2.01,1.46-3.66,3.44-3.66,1.38,0,2.61,.83,3.24,2.03l-.17-4.95c0-.11,.08-.23,.17-.23,.12,0,.2,.12,.2,.23l.23,6.44v.15s.01,.18,.01,.18l.12,3.32c0,.11-.07,.2-.19,.2Zm-.31-3.83c-.12-1.76-1.6-3.15-3.28-3.15s-3.14,1.47-3.08,3.29c.06,1.83,1.56,3.32,3.31,3.32s3.11-1.49,3.05-3.32v-.14Z" style="fill:#263238;"/><path d="M214.79,158.72c0-.12,.07-.2,.19-.2,.09,0,.18,.08,.19,.2v.36c.02,.09-.07,.18-.16,.18-.12,0-.2-.09-.2-.18v-.36Zm.07,2.36c0-.12,.07-.18,.19-.18,.09,0,.18,.06,.19,.18l.24,6.98c0,.11-.08,.2-.17,.2-.12,0-.2-.09-.2-.2l-.24-6.98Z" style="fill:#263238;"/><path d="M218.71,166.95c.06-.11,.18-.12,.27-.03,.56,.43,1.49,.95,2.46,.95,.64,0,1.19-.19,1.6-.5,.41-.3,.64-.71,.62-1.14-.03-.42-.24-.75-.65-1.04-.43-.27-1.01-.47-1.72-.6h-.04c-.68-.11-1.29-.29-1.73-.6-.44-.28-.76-.72-.78-1.25-.02-1.07,1.09-1.86,2.44-1.86,.93,0,1.67,.47,2.25,.86,.09,.06,.11,.18,.07,.26-.06,.09-.18,.12-.27,.06-.58-.38-1.23-.8-2.04-.8-.61,0-1.15,.18-1.51,.46-.37,.29-.56,.63-.55,1.02,.01,.39,.2,.67,.59,.93,.38,.25,.95,.44,1.61,.57h.01c.74,.15,1.38,.32,1.87,.63,.48,.32,.81,.78,.83,1.35,.02,1.15-1.16,2.01-2.58,2.01-1.11,0-2.1-.57-2.71-1.05-.09-.06-.1-.16-.04-.24Z" style="fill:#263238;"/><path d="M232.13,163.88c-.05-1.44-1.25-2.6-2.69-2.6s-2.51,1.11-2.52,2.49l.15,4.28c0,.08-.03,.14-.07,.16-.03,.02-.06,.03-.07,.03h-.03s-.09-.02-.14-.04c-.03-.03-.06-.08-.06-.12v-.03s-.15-4.17-.15-4.17v-.12s-.21-5.82-.21-5.82c0-.11,.08-.2,.19-.2s.18,.09,.19,.2l.16,4.5c.48-.92,1.43-1.55,2.56-1.55,1.65,0,3.02,1.34,3.07,2.99l.15,4.17c0,.11-.08,.2-.17,.2-.12,0-.2-.09-.2-.2l-.15-4.17Z" style="fill:#263238;"/><path d="M235.25,164.57c-.04-2.04,1.48-3.68,3.44-3.68s3.44,1.49,3.64,3.39v.04s0,.02,0,.02c-.01,.09-.08,.18-.17,.18h-6.54v.04c.06,1.8,1.54,3.29,3.31,3.3,1.11,0,2.06-.6,2.59-1.5,.06-.09,.16-.09,.27-.04,.08,.04,.11,.16,.05,.25-.6,.98-1.67,1.67-2.9,1.67-1.97-.03-3.6-1.67-3.7-3.68Zm.37-.41h6.33c-.25-1.64-1.65-2.88-3.25-2.88s-2.94,1.25-3.08,2.88Z" style="fill:#263238;"/><path d="M244.42,166.95c.06-.11,.18-.12,.27-.03,.56,.43,1.49,.95,2.46,.95,.65,0,1.19-.19,1.6-.5,.41-.3,.63-.71,.62-1.14-.03-.42-.24-.75-.65-1.04-.43-.27-1.01-.47-1.72-.6h-.04c-.68-.11-1.28-.29-1.73-.6-.44-.28-.76-.72-.78-1.25-.02-1.07,1.09-1.86,2.44-1.86,.93,0,1.67,.47,2.25,.86,.09,.06,.11,.18,.07,.26-.06,.09-.17,.12-.27,.06-.58-.38-1.23-.8-2.04-.8-.62,0-1.15,.18-1.51,.46-.37,.29-.56,.63-.55,1.02,.01,.39,.2,.67,.59,.93,.38,.25,.95,.44,1.61,.57h.01c.74,.15,1.38,.32,1.87,.63,.48,.32,.81,.78,.83,1.35,.03,1.15-1.16,2.01-2.58,2.01-1.11,0-2.11-.57-2.71-1.05-.09-.06-.1-.16-.04-.24Z" style="fill:#263238;"/></g></g><g><path d="M119.42,200.83h-11.81l-.41-11.81h11.81l.41,11.81Zm-10.85-1h9.81l-.34-9.81h-9.81l.34,9.81Z" style="fill:#263238;"/><g><path d="M131.77,190.03c0-.1,.07-.2,.16-.2h5.61c.1,0,.18,.09,.19,.2,0,.11-.07,.18-.17,.18h-5.41l.16,4.68h4.77c.1,0,.18,.09,.19,.18,0,.12-.07,.2-.17,.2h-4.77l.17,4.88c0,.11-.07,.2-.19,.2-.09,0-.17-.09-.17-.2l-.35-10.11Z" style="fill:#263238;"/><path d="M140.16,196.66c-.04-2.04,1.48-3.68,3.44-3.68s3.44,1.49,3.64,3.39h0s0,.04,0,.04v.02c-.01,.09-.08,.18-.17,.18h-6.54v.05c.06,1.8,1.54,3.29,3.31,3.3,1.11,0,2.06-.6,2.59-1.5,.06-.09,.16-.09,.27-.04,.08,.04,.11,.17,.05,.25-.6,.98-1.67,1.67-2.9,1.67-1.97-.03-3.6-1.67-3.7-3.68Zm.37-.41h6.33c-.25-1.64-1.65-2.88-3.25-2.88s-2.94,1.25-3.08,2.88Z" style="fill:#263238;"/><path d="M149.29,196.66c-.04-2.04,1.48-3.68,3.44-3.68s3.44,1.49,3.64,3.39h0s0,.04,0,.04v.02c-.01,.09-.08,.18-.17,.18h-6.54v.05c.06,1.8,1.54,3.29,3.31,3.3,1.11,0,2.06-.6,2.59-1.5,.06-.09,.16-.09,.27-.04,.08,.04,.11,.17,.05,.25-.6,.98-1.67,1.67-2.9,1.67-1.97-.03-3.6-1.67-3.7-3.68Zm.37-.41h6.33c-.25-1.64-1.65-2.88-3.25-2.88s-2.94,1.25-3.08,2.88Z" style="fill:#263238;"/><path d="M165.5,200.33c-.09,0-.18-.09-.19-.2l-.06-1.82c-.54,1.18-1.72,2.01-3.1,2.01-1.98,0-3.63-1.67-3.7-3.69-.07-2.01,1.46-3.66,3.44-3.66,1.38,0,2.61,.83,3.24,2.03l-.17-4.95c0-.1,.08-.23,.17-.23,.12,0,.2,.12,.2,.23l.23,6.44v.15s.01,.18,.01,.18l.12,3.32c0,.11-.07,.2-.19,.2Zm-.31-3.83c-.12-1.75-1.6-3.15-3.28-3.15s-3.14,1.47-3.08,3.29c.06,1.83,1.56,3.32,3.31,3.32s3.11-1.49,3.05-3.32v-.14Z" style="fill:#263238;"/><path d="M175.69,193.18c0,.11-.08,.18-.19,.18h-1.2l.2,5.85c.01,.42,.37,.77,.79,.77,.1,0,.2,.08,.2,.18,0,.11-.08,.2-.19,.2-.63,0-1.16-.51-1.18-1.14l-.2-5.85h-1.26c-.11,0-.2-.08-.2-.18,0-.1,.08-.2,.19-.2h1.26l-.1-2.94c0-.11,.07-.2,.17-.2s.2,.09,.2,.2l.1,2.94h1.2c.1,0,.2,.09,.2,.2Z" style="fill:#263238;"/><path d="M184.61,195.97c-.05-1.44-1.25-2.6-2.69-2.6s-2.51,1.11-2.52,2.49l.15,4.28c0,.08-.03,.14-.07,.16-.03,.02-.06,.03-.07,.03h-.03s-.09-.01-.14-.04c-.03-.03-.06-.08-.06-.12v-.03s-.15-4.17-.15-4.17v-.12s-.21-5.82-.21-5.82c0-.1,.08-.2,.19-.2s.18,.09,.19,.2l.16,4.5c.48-.92,1.43-1.55,2.56-1.55,1.65,0,3.02,1.34,3.07,2.99l.15,4.17c0,.11-.08,.2-.17,.2-.12,0-.2-.09-.2-.2l-.15-4.17Z" style="fill:#263238;"/><path d="M187.72,196.66c-.04-2.04,1.48-3.68,3.44-3.68s3.44,1.49,3.64,3.39h0s0,.04,0,.04v.02c-.01,.09-.08,.18-.17,.18h-6.54v.05c.06,1.8,1.54,3.29,3.31,3.3,1.11,0,2.06-.6,2.59-1.5,.06-.09,.16-.09,.27-.04,.08,.04,.11,.17,.05,.25-.6,.98-1.67,1.67-2.9,1.67-1.97-.03-3.6-1.67-3.7-3.68Zm.37-.41h6.33c-.25-1.64-1.65-2.88-3.25-2.88s-2.94,1.25-3.08,2.88Z" style="fill:#263238;"/><path d="M205.01,192.98c.87,0,1.7,.29,2.37,.8,.08,.08,.08,.19,.03,.28-.06,.08-.16,.08-.25,.02-.6-.45-1.35-.72-2.12-.72-1.9,0-3.35,1.49-3.29,3.3,.06,1.82,1.62,3.3,3.52,3.3,.78,0,1.5-.29,2.07-.74,.07-.04,.19-.03,.26,.04,.06,.09,.07,.2,0,.27-.63,.5-1.44,.8-2.31,.8-2.09-.01-3.84-1.67-3.91-3.68-.07-2.03,1.57-3.68,3.65-3.68Z" style="fill:#263238;"/><path d="M216.46,193.18l.24,6.96c0,.12-.07,.2-.17,.2-.12,0-.2-.08-.2-.2l-.06-1.83c-.53,1.2-1.67,2.03-3.02,2.03-1.92,0-3.52-1.67-3.59-3.68-.07-2.01,1.42-3.68,3.34-3.68,1.35,0,2.55,.84,3.16,2.03l-.06-1.83c0-.09,.07-.2,.19-.2,.1,0,.18,.11,.19,.2Zm-.25,3.48c-.06-1.82-1.51-3.29-3.2-3.29s-3.04,1.47-2.97,3.29c.06,1.83,1.51,3.3,3.21,3.3s3.04-1.47,2.97-3.3Z" style="fill:#263238;"/><path d="M222.07,193.18c0,.11-.08,.18-.19,.18h-1.2l.2,5.85c.01,.42,.37,.77,.79,.77,.1,0,.2,.08,.2,.18,0,.11-.08,.2-.19,.2-.63,0-1.16-.51-1.18-1.14l-.2-5.85h-1.26c-.1,0-.2-.08-.2-.18,0-.1,.08-.2,.19-.2h1.26l-.1-2.94c0-.11,.07-.2,.17-.2s.2,.09,.2,.2l.1,2.94h1.2c.1,0,.2,.09,.2,.2Z" style="fill:#263238;"/></g></g><g><path d="M120.54,232.92h-11.81l-.41-11.81h11.81l.41,11.81Zm-10.85-1h9.81l-.34-9.81h-9.81l.34,9.81Z" style="fill:#263238;"/><g><path d="M143.25,232.41c-.06-.02-.09-.06-.11-.12l-3.19-7.04-2.72,7.05s-.06,.09-.1,.11h-.02s-.03,.01-.04,.01h-.01s-.04,0-.06-.01h-.01s-.03-.02-.05-.03t-.02-.02s-.05-.06-.05-.09l-4.58-10.07c-.06-.09,0-.21,.08-.24,.09-.05,.21,0,.26,.09l4.4,9.69,2.7-6.98c.03-.09,.12-.14,.19-.14,.07-.01,.17,.04,.21,.14l3.17,6.98,3.74-9.69c.06-.09,.15-.13,.25-.09,.11,.03,.16,.15,.11,.24l-3.89,10.1s-.04,.04-.06,.08c-.01,0-.03,.01-.03,.01-.03,.02-.06,.03-.09,.03h-.03s-.03,0-.05-.01h-.02Z" style="fill:#263238;"/><path d="M154.45,225.27l.24,6.96c0,.12-.07,.19-.17,.19-.12,0-.2-.07-.2-.19l-.06-1.83c-.53,1.2-1.67,2.03-3.02,2.03-1.92,0-3.52-1.67-3.59-3.68-.07-2.01,1.42-3.68,3.34-3.68,1.35,0,2.55,.84,3.16,2.03l-.06-1.83c0-.09,.07-.2,.19-.2,.1,0,.18,.11,.19,.2Zm-.25,3.48c-.06-1.82-1.51-3.29-3.21-3.29s-3.04,1.47-2.97,3.29c.06,1.83,1.51,3.3,3.2,3.3s3.04-1.47,2.97-3.3Z" style="fill:#263238;"/><path d="M160.06,225.27c0,.11-.08,.18-.19,.18h-1.2l.2,5.85c.01,.42,.37,.77,.79,.77,.1,0,.2,.08,.2,.18,0,.1-.08,.19-.19,.19-.63,0-1.16-.51-1.18-1.14l-.2-5.85h-1.26c-.11,0-.2-.08-.2-.18,0-.11,.08-.2,.19-.2h1.26l-.1-2.94c0-.11,.07-.2,.17-.2s.2,.09,.2,.2l.1,2.94h1.2c.1,0,.2,.09,.2,.2Z" style="fill:#263238;"/><path d="M162.59,228.75c-.04-2.04,1.48-3.68,3.44-3.68s3.44,1.49,3.64,3.39h0s0,.04,0,.04h0c-.01,.11-.08,.2-.17,.2h-6.54v.04c.06,1.8,1.54,3.29,3.31,3.3,1.11,0,2.06-.6,2.59-1.5,.06-.09,.16-.09,.27-.05,.08,.05,.11,.17,.05,.25-.6,.98-1.67,1.67-2.9,1.67-1.97-.03-3.6-1.67-3.7-3.68Zm.38-.41h6.33c-.25-1.64-1.65-2.88-3.25-2.88s-2.94,1.25-3.08,2.88Z" style="fill:#263238;"/><path d="M171.95,228.79s-.02-.04,0-.09l-.12-3.44c0-.11,.08-.2,.17-.2,.12,0,.18,.09,.19,.2l.09,2.49c.11-.27,.25-.57,.43-.87,.54-.86,1.45-1.82,2.86-1.82,.12,0,.2,.09,.2,.2,0,.11-.07,.2-.19,.2-.93,0-1.62,.45-2.09,1-.5,.6-.84,1.35-1.02,1.82-.11,.33-.16,.51-.16,.51l.12,3.44c0,.12-.05,.19-.17,.19-.09,0-.18-.07-.19-.19l-.12-3.44Z" style="fill:#263238;"/><path d="M185.36,225.27c0,.11-.08,.18-.19,.18h-1.2l.2,5.85c.01,.42,.37,.77,.79,.77,.1,0,.2,.08,.2,.18,0,.1-.08,.19-.19,.19-.63,0-1.16-.51-1.18-1.14l-.2-5.85h-1.26c-.11,0-.2-.08-.2-.18,0-.11,.08-.2,.19-.2h1.26l-.1-2.94c0-.11,.07-.2,.17-.2s.2,.09,.2,.2l.1,2.94h1.2c.1,0,.2,.09,.2,.2Z" style="fill:#263238;"/><path d="M194.28,228.06c-.05-1.44-1.25-2.6-2.69-2.6s-2.51,1.11-2.52,2.49l.15,4.28c0,.08-.03,.13-.07,.17-.03,.02-.06,.03-.07,.03h-.03s-.09-.01-.14-.04c-.03-.03-.06-.08-.06-.12v-.03s-.15-4.17-.15-4.17v-.12s-.21-5.82-.21-5.82c0-.1,.08-.19,.19-.19s.18,.09,.19,.19l.16,4.5c.48-.92,1.43-1.55,2.56-1.55,1.65,0,3.02,1.34,3.07,2.99l.15,4.17c0,.11-.08,.19-.17,.19-.12,0-.2-.09-.2-.19l-.15-4.17Z" style="fill:#263238;"/><path d="M197.39,228.75c-.04-2.04,1.48-3.68,3.44-3.68s3.44,1.49,3.64,3.39h0s0,.04,0,.04h0c-.01,.11-.08,.2-.17,.2h-6.54v.04c.06,1.8,1.54,3.29,3.31,3.3,1.11,0,2.06-.6,2.59-1.5,.06-.09,.16-.09,.27-.05,.08,.05,.11,.17,.05,.25-.6,.98-1.67,1.67-2.9,1.67-1.97-.03-3.6-1.67-3.7-3.68Zm.38-.41h6.33c-.25-1.64-1.65-2.88-3.25-2.88s-2.94,1.25-3.08,2.88Z" style="fill:#263238;"/><path d="M211.56,228.85v-.15s-.01-.15-.01-.15l-.11-3.29c0-.12,.07-.2,.19-.2,.1,0,.18,.08,.19,.2l.06,1.82c.53-1.2,1.7-2.01,3.06-2.01,1.98,0,3.6,1.62,3.67,3.63,.07,2.01-1.43,3.65-3.41,3.65-1.36,0-2.59-.83-3.2-2l.18,5.09c0,.12-.07,.19-.17,.19-.12,0-.2-.07-.2-.19l-.23-6.59Zm.37-.15c.06,1.8,1.54,3.26,3.25,3.26s3.1-1.46,3.04-3.26c-.06-1.79-1.54-3.26-3.26-3.26s-3.03,1.39-3.03,3.12v.13Z" style="fill:#263238;"/><path d="M221.03,222.12c0-.1,.07-.19,.19-.19,.1,0,.18,.09,.19,.19l.35,10.11c0,.11-.07,.19-.17,.19-.12,0-.2-.09-.2-.19l-.35-10.11Z" style="fill:#263238;"/><path d="M230.9,225.27l.24,6.96c0,.12-.07,.19-.17,.19-.12,0-.2-.07-.2-.19l-.06-1.83c-.53,1.2-1.67,2.03-3.02,2.03-1.92,0-3.52-1.67-3.59-3.68-.07-2.01,1.42-3.68,3.34-3.68,1.35,0,2.55,.84,3.16,2.03l-.06-1.83c0-.09,.07-.2,.19-.2,.1,0,.18,.11,.19,.2Zm-.25,3.48c-.06-1.82-1.51-3.29-3.21-3.29s-3.04,1.47-2.97,3.29c.06,1.83,1.51,3.3,3.21,3.3s3.04-1.47,2.97-3.3Z" style="fill:#263238;"/><path d="M239.55,228.04c-.05-1.46-1.26-2.59-2.67-2.59s-2.56,1.14-2.5,2.59l.15,4.19s-.01,.09-.04,.12c-.03,.04-.07,.07-.13,.07h-.06s-.03-.01-.05-.03c-.02,0-.03-.01-.05-.03t-.02-.03s-.03-.04-.03-.08v-.03s-.15-4.19-.15-4.19v-.12s-.1-2.67-.1-2.67c0-.12,.08-.18,.19-.18s.18,.06,.19,.18l.05,1.35c.48-.91,1.43-1.53,2.54-1.53,1.62,0,3,1.32,3.06,2.97l.15,4.19c0,.11-.08,.19-.19,.19-.12,0-.18-.09-.19-.19l-.15-4.19Z" style="fill:#263238;"/><path d="M245.56,225.27c0,.11-.08,.18-.19,.18h-1.2l.2,5.85c.01,.42,.37,.77,.79,.77,.1,0,.2,.08,.2,.18,0,.1-.08,.19-.19,.19-.63,0-1.16-.51-1.18-1.14l-.2-5.85h-1.26c-.11,0-.2-.08-.2-.18,0-.11,.08-.2,.19-.2h1.26l-.1-2.94c0-.11,.07-.2,.17-.2s.2,.09,.2,.2l.1,2.94h1.2c.1,0,.2,.09,.2,.2Z" style="fill:#263238;"/><path d="M248.73,231.13c.06-.11,.18-.12,.27-.03,.56,.44,1.49,.95,2.46,.95,.65,0,1.19-.2,1.6-.5,.41-.3,.63-.7,.62-1.14-.03-.42-.24-.75-.65-1.04-.43-.27-1.01-.46-1.72-.6h-.04c-.68-.11-1.28-.29-1.73-.6-.44-.29-.76-.72-.78-1.25-.02-1.07,1.09-1.86,2.44-1.86,.93,0,1.67,.47,2.25,.86,.09,.06,.11,.18,.07,.25-.06,.09-.18,.12-.27,.06-.58-.38-1.23-.79-2.04-.79-.62,0-1.15,.18-1.51,.46-.37,.28-.56,.63-.55,1.02,.01,.39,.2,.68,.59,.93,.38,.25,.95,.44,1.61,.57h.02c.74,.15,1.38,.32,1.87,.63,.48,.31,.81,.78,.83,1.35,.03,1.16-1.16,2.01-2.58,2.01-1.11,0-2.11-.57-2.71-1.05-.09-.06-.1-.17-.04-.24Z" style="fill:#263238;"/></g></g><polygon points="110.2 103.09 106.03 97.93 107.56 96.7 109.88 99.56 115.43 89.8 117.18 90.84 110.2 103.09" style="fill:#6d28d9;"/><polygon points="111.33 135.26 107.15 130.1 108.69 128.88 111 131.73 116.55 121.97 118.3 123.01 111.33 135.26" style="fill:#6d28d9;"/><polygon points="112.44 167.1 108.26 161.94 109.8 160.71 112.11 163.57 117.67 153.81 119.41 154.85 112.44 167.1" style="fill:#6d28d9;"/></g></g></g><g id="Chair"><g><g><g><rect x="335.74" y="310.96" width="54.46" height="4" style="fill:#c7c7c7;"/><g><polygon points="340.29 159.8 340 178.75 338.16 310.96 338.1 314.96 337.29 367.69 334.21 367.69 333.4 314.96 333.34 310.96 331.5 178.75 331.21 159.8 340.29 159.8" style="fill:#c7c7c7;"/><polygon points="331.21 159.8 340.29 159.8 340 178.75 331.5 178.75 331.21 159.8" style="fill:#a6a6a6;"/></g><g><polygon points="394.74 159.8 394.45 178.75 391.74 367.69 388.66 367.69 387.85 314.96 387.79 310.96 385.95 178.75 385.66 159.8 394.74 159.8" style="fill:#c7c7c7;"/><polygon points="394.74 159.8 394.45 178.75 385.95 178.75 385.66 159.8 394.74 159.8" style="fill:#a6a6a6;"/></g></g><g><rect x="308.55" y="310.96" width="53.46" height="4" style="fill:#c7c7c7;"/><g><polygon points="313.09 159.8 312.8 178.75 310.96 310.96 310.9 314.96 310.09 367.69 307.01 367.69 304.3 178.75 304.01 159.8 313.09 159.8" style="fill:#c7c7c7;"/><polygon points="304.01 159.8 313.09 159.8 312.8 178.75 304.3 178.75 304.01 159.8" style="fill:#a6a6a6;"/></g><g><polygon points="366.55 159.8 366.26 178.75 364.42 310.96 364.36 314.96 363.55 367.69 360.47 367.69 359.66 314.96 359.6 310.96 357.76 178.75 357.47 159.8 366.55 159.8" style="fill:#c7c7c7;"/><polygon points="357.47 159.8 366.55 159.8 366.26 178.75 357.76 178.75 357.47 159.8" style="fill:#a6a6a6;"/></g></g></g><g><g><rect x="300.4" y="150.98" width="99.06" height="10.38" style="fill:#6d28d9;"/><rect x="300.4" y="150.98" width="78.38" height="10.38" style="fill:#263238; opacity:.1;"/></g><g><polygon points="406.21 79.6 399.44 150.98 342.18 150.98 341.61 142.21 336.14 78.82 397.73 79.51 406.21 79.6" style="fill:#6d28d9;"/><polygon points="397.73 79.51 393.08 150.98 342.18 150.98 341.61 142.21 336.14 78.82 397.73 79.51" style="fill:#263238; opacity:.1;"/></g></g></g></g><g id="Character"><g><g><g><g><path d="M291.22,326.95c2.47-.42,62.47-32.51,63.99-35.17,.58-1.01-3.58-10.02-8.92-20.77-1.15-2.32-2.36-4.71-3.59-7.13-8.01-15.72-16.88-32.21-16.88-32.21l-40.2,21.35,17.99,31.62,3.94,6.94s-17.48,22.56-18.82,25.67c-1.33,3.1,.03,10.12,2.51,9.7Z" style="fill:#bfb4d6;"/><path d="M291.22,326.95c2.47-.42,62.47-32.51,63.99-35.17,.7-1.23-5.59-14.28-12.52-27.89l-39.09,20.76,3.94,6.94s-17.48,22.56-18.82,25.67c-1.33,3.1,.03,10.12,2.51,9.7Z" style="fill:#fff;"/><g><path d="M291.22,326.95c2.47-.42,62.47-32.51,63.99-35.17,.58-1.01-3.58-10.02-8.92-20.77l-38.74,20.57s-17.48,22.56-18.82,25.67c-1.33,3.1,.03,10.12,2.51,9.7Z" style="fill:#6d28d9;"/><g><g><path d="M290.79,324.09c9.93-5.63,50.49-27.38,60.73-32.18,.08-.04,.11,.02,.03,.06-9.72,5.79-50.46,27.21-60.68,32.29-.22,.11-.3-.05-.09-.17Z" style="fill:#263238;"/><path d="M291.42,313.03c2.33-1.37,5.27-1.49,7.33-.76,1.98,.7,4.07,2.04,5.12,4.17,.03,.06-.08,.12-.12,.06-2.68-3.63-8.11-5.17-12.26-3.34-.08,.04-.15-.08-.07-.13Z" style="fill:#263238;"/><path d="M304.17,294.67c4-2.21,9.42-3.28,13.69-1.33,.17,.08,.06,.31-.1,.31-4.64,.07-8.85,.52-13.39,1.55-.32,.07-.48-.37-.2-.53Z" style="fill:#263238;"/><path d="M301.71,297.54c4-2.21,9.42-3.28,13.69-1.33,.17,.08,.05,.31-.1,.31-4.64,.07-8.85,.52-13.39,1.55-.32,.07-.48-.37-.2-.53Z" style="fill:#263238;"/><path d="M299.25,300.42c4-2.21,9.42-3.28,13.69-1.33,.17,.08,.06,.31-.1,.31-4.64,.07-8.85,.52-13.39,1.55-.32,.07-.48-.37-.2-.53Z" style="fill:#263238;"/><path d="M296.79,303.29c4-2.21,9.42-3.28,13.69-1.33,.17,.08,.06,.31-.1,.31-4.64,.07-8.85,.52-13.39,1.55-.32,.07-.48-.37-.2-.53Z" style="fill:#263238;"/><path d="M343.85,283.72c4.52-2.4,8.26,4.62,3.73,7.03-4.52,2.4-8.26-4.62-3.73-7.03Z" style="fill:#263238;"/></g><path d="M297.55,291.98c3.67,1.64,7.92,1.64,11.85,2.09,.41,.05,.62-.38,.55-.71,.07-.03,.12-.1,.06-.18-2.08-3.35-5.61-6.58-9.16-8.34-2.19-1.08-5.64-1.36-6.78,1.42-1.07,2.63,1.33,4.77,3.48,5.73Zm-1.97-3.24c-1.94-4.59,3.81-3.34,5.39-2.48,1.02,.55,1.99,1.24,2.92,1.93,1.95,1.44,3.67,3.13,5.46,4.75-1.92-.34-3.84-.51-5.77-.78-2.3-.32-6.94-.89-8.01-3.42Z" style="fill:#263238;"/><path d="M322.94,282.96c-1.72-2.46-5.02-1.42-6.92,.12-3.08,2.5-5.8,6.43-7.09,10.16-.03,.09,.03,.15,.1,.16,0,.34,.31,.71,.69,.57,3.73-1.31,7.88-2.24,11.1-4.66,1.88-1.41,3.75-4.03,2.12-6.36Zm-7.97,7.87c-1.82,.69-3.66,1.28-5.45,2.04,1.39-1.98,2.68-4.01,4.27-5.84,.76-.88,1.55-1.76,2.42-2.53,1.36-1.19,6.69-3.68,5.81,1.23-.48,2.71-4.88,4.29-7.05,5.11Z" style="fill:#263238;"/></g></g></g><g><path d="M313.69,195.79c.94,11.67,27.91,62.93,27.91,62.93l-42.5,21.31s-32.77-57.77-31-83.77c1.51-22.06,39.7-49.86,63.19-77.04h31.66c-9.99,30.77-46.64,64.74-49.2,75.11-.09,.37-.11,.86-.06,1.44v.02Z" style="fill:#37474f;"/><g><path d="M299.06,271.54c6.96-3.72,4.91-2.75,11.91-6.4,3.43-1.79,20.62-10.8,24.1-11.94,.08-.02,.13,.09,.07,.14-2.96,2.14-20.35,10.79-23.81,12.51-7.07,3.52-5.07,2.44-12.18,5.88-.13,.06-.23-.12-.1-.19Z" style="fill:#263238;"/><path d="M359.24,124.07c-10.13,16.96-21.37,33.19-34.03,48.38-3.08,3.7-6.27,7.3-9.45,10.91-2.7,3.05-5.43,6.43-5.94,10.61-.57,4.66,1.45,9.19,3.09,13.43,1.8,4.68,3.61,9.35,5.52,13.98,2.05,5,4.21,9.96,6.6,14.81,1.22,2.48,2.5,4.93,3.84,7.35,.67,1.21,1.36,2.41,2.07,3.6,.35,.6,2.83,4.69,3.19,5.29,.12,.19,.42,.43,.12-.07-.68-1.12-3.45-5.76-4.09-6.9-2.52-4.5-4.77-9.14-6.9-13.83-2.16-4.76-4.16-9.58-6.09-14.44-1.9-4.79-3.87-9.59-5.54-14.47-.85-2.49-1.56-5.13-1.41-7.79,.15-2.61,1.18-4.98,2.63-7.12,2.72-4.01,6.36-7.48,9.5-11.17,6.51-7.65,12.69-15.58,18.54-23.76,6.62-9.26,12.84-18.84,18.47-28.74,.04-.08-.08-.15-.12-.07Z" style="fill:#263238;"/></g></g></g><g><path d="M323.17,388.7c2.43,.62,70.29-4.31,72.76-6.13,.94-.69,.8-10.61,.29-22.6-.11-2.59-.24-5.26-.39-7.97-.93-17.62-2.33-36.29-2.33-36.29l-45.4,3.16,3.58,36.2,.78,7.95s-25.14,13.51-27.63,15.8c-2.48,2.29-4.08,9.26-1.65,9.88Z" style="fill:#bfb4d6;"/><path d="M323.17,388.7c2.43,.62,70.29-4.31,72.76-6.13,1.14-.84,.7-15.32-.1-30.57l-44.15,3.08,.78,7.95s-25.14,13.51-27.63,15.8c-2.48,2.29-4.08,9.26-1.65,9.88Z" style="fill:#fff;"/><g><path d="M323.17,388.7c2.43,.62,70.29-4.31,72.76-6.13,.94-.69,.8-10.61,.29-22.6l-43.76,3.05s-25.14,13.51-27.63,15.8c-2.48,2.29-4.08,9.26-1.65,9.88Z" style="fill:#6d28d9;"/><g><g><path d="M323.95,385.92c11.36-1.11,57.26-4.49,68.57-4.72,.09,0,.1,.06,0,.07-11.23,1.34-57.16,4.36-68.56,4.84-.24,.01-.25-.16-.01-.19Z" style="fill:#263238;"/><path d="M329.02,376.07c2.69-.31,5.42,.78,7.01,2.28,1.53,1.44,2.89,3.52,2.98,5.89,0,.07-.12,.08-.14,0-.97-4.4-5.31-8.02-9.84-8.04-.09,0-.1-.13,0-.14Z" style="fill:#263238;"/><path d="M348.13,364.48c4.55-.39,9.94,.83,13.04,4.35,.12,.14-.08,.31-.22,.25-4.27-1.82-8.3-3.12-12.87-4.03-.32-.06-.29-.54,.04-.57Z" style="fill:#263238;"/><path d="M344.71,366.1c4.55-.39,9.94,.83,13.04,4.35,.12,.14-.08,.31-.22,.25-4.27-1.82-8.3-3.12-12.87-4.03-.32-.06-.29-.54,.04-.57Z" style="fill:#263238;"/><path d="M341.3,367.73c4.55-.39,9.94,.83,13.04,4.35,.12,.14-.08,.31-.22,.25-4.27-1.82-8.3-3.12-12.87-4.03-.32-.06-.29-.54,.04-.57Z" style="fill:#263238;"/><path d="M337.88,369.35c4.55-.39,9.94,.83,13.04,4.35,.12,.14-.08,.31-.22,.25-4.27-1.82-8.3-3.12-12.87-4.03-.32-.06-.29-.54,.04-.57Z" style="fill:#263238;"/><path d="M388.84,370.6c5.11-.36,5.67,7.58,.55,7.94-5.11,.36-5.67-7.58-.55-7.94Z" style="fill:#263238;"/></g><path d="M343.18,359.33c2.69,2.99,6.58,4.72,9.98,6.72,.35,.21,.72-.09,.79-.43,.08,0,.15-.04,.13-.14-.54-3.91-2.45-8.3-4.98-11.34-1.57-1.88-4.6-3.54-6.77-1.46-2.05,1.97-.72,4.9,.85,6.65Zm-.48-3.76c.09-4.99,4.84-1.51,5.94-.07,.71,.92,1.31,1.94,1.89,2.95,1.2,2.11,2.08,4.35,3.06,6.56-1.61-1.09-3.3-2.03-4.95-3.06-1.97-1.23-5.98-3.63-5.93-6.38Z" style="fill:#263238;"/><path d="M370.04,361.41c-.57-2.95-4.01-3.34-6.37-2.71-3.83,1.03-7.92,3.52-10.61,6.4-.07,.07-.03,.15,.03,.19-.13,.31,0,.77,.4,.81,3.94,.32,8.11,1.15,12.03,.26,2.29-.52,5.06-2.16,4.52-4.94Zm-10.48,3.95c-1.94-.11-3.86-.32-5.81-.36,2.07-1.24,4.08-2.57,6.28-3.6,1.05-.49,2.13-.98,3.24-1.32,1.72-.54,7.61-.65,4.81,3.48-1.54,2.28-6.21,1.93-8.52,1.8Z" style="fill:#263238;"/></g></g></g><g><path d="M346.39,350.68l51.85-3.04s-20.76-181.01-17.27-187.83c7.93-15.49,8.66-22.24-.07-40.59l-39.49,.03s2.22,19.32,2.07,20.15c-9.84,54.42,2.91,211.27,2.91,211.27Z" style="fill:#37474f;"/><g><path d="M348.4,341.54c10.29-1.24,42.53-2.96,45.99-2.64,.08,0,.09,.13,.01,.15-3.37,.81-20.33,1.96-45.98,2.71-.14,0-.16-.2-.02-.22Z" style="fill:#263238;"/><path d="M339.98,121.33c.64,5.07,.83,13.75,3.78,13.75s1.94-10.59,1.91-13.04c-.03-2.22,.75-1.95,.95,.66,.55,7.07,.66,13.32-3.12,13.2-3.85-.12-4.25-11.09-4.27-13.6-.01-1.29,.55-2.57,.75-.98Z" style="fill:#263238;"/><path d="M343.58,135.43c.22,.98,.36,4.61,.14,5.36-.04,.15-.62,.06-.68-.05-.39-.72-.27-4.21-.41-5.14-.09-.62,.81-.77,.95-.17Z" style="fill:#263238;"/><path d="M342.63,141.75c-1.05,4.51-1.94,13.07-1.53,15.3,.04,.2,.34,.26,.37,.04,.29-2.4,1.54-13.95,1.67-15.16,.13-1.29-.21-1.43-.5-.18Z" style="fill:#263238;"/><path d="M350.51,144.9c-.58-.58-1.29-1.03-1.95-1.5-.68-.49-1.36-.96-2.07-1.41-1.44-.92-2.92-1.75-4.42-2.56-1.47-.79-2.98-1.49-4.5-2.18-1.59-.72-3.28-1.23-4.88-1.95-.09-.04-.17,.09-.08,.14,1.52,.75,2.93,1.71,4.41,2.54,1.49,.83,2.95,1.69,4.44,2.53,1.45,.81,2.89,1.65,4.35,2.45,.76,.42,1.53,.83,2.3,1.23,.72,.38,1.42,.81,2.18,1.08,.22,.08,.36-.24,.21-.38Z" style="fill:#263238;"/><path d="M387.73,314.81c-.99-7.16-1.92-14.32-2.8-21.5-1.76-14.34-3.3-28.72-4.61-43.11-1.32-14.39-2.42-28.8-3.29-43.23-.44-7.21-.82-14.43-1.15-21.65-.33-7.16-.82-16.72-.78-23.9,.02-3.65,6.3-6.75,7.11-17.4,.51-6.65-.11-12.23-2.23-17.92-.52-1.4-1.12-2.75-1.8-4.08-.05-.09-.18,0-.13,.08,2.84,5.81,4.2,12.28,3.98,18.75-.11,3.24-.46,6.49-1.55,9.6-1.52,4.35-5.6,8.01-5.71,10.29-.17,3.41-.09,6.34,.02,9.74,.12,3.54,.25,7.08,.39,10.62,.3,7.22,.65,14.44,1.06,21.65,.82,14.36,1.85,28.7,3.12,43.03,1.27,14.33,2.75,28.63,4.46,42.91,1.71,14.28,3.64,28.53,5.8,42.75,.25,1.63,.52,3.25,.83,4.87,.03,.18,.33,.12,.31-.06-.82-7.17-2.05-14.3-3.04-21.45Z" style="fill:#263238;"/></g></g></g><g><g><path d="M331.21,21.39c-7.13,4.49-10.95,13.65-10.95,13.65,0,0-7.76,8.35-7.37,13.91,.39,5.56,4.6,7.8,4.6,7.8l.1-3.01s1.04,4.13,6.96,7.04c5.92,2.91,14.64,2.84,19.43,1.63,4.8-1.21,7.58-4.14,7.58-4.14l-2.56,3.83s6.12,1.16,11.19-4.49c5.06-5.65-3.21-17.28-3.63-19.47-.43-2.2,1.74-17.03-14.16-17.97,0,0-6.27-1.86-11.18,1.23Z" style="fill:#263238;"/><path d="M315.36,55.87c-1.55-1.21-2.59-3.29-3.1-5.16-.54-1.98-.48-4.06,.33-5.96,.96-2.27,2.67-4.06,4.34-5.82,1.72-1.82,3.58-3.51,5.27-5.36,.09-.1-.06-.24-.16-.16-1.74,1.24-3.35,2.73-4.94,4.16-1.51,1.36-3.01,2.79-4.17,4.47-1.05,1.53-1.86,3.33-1.92,5.21-.04,1.55,.33,3.07,1.01,4.47,.81,1.66,2.05,2.89,3.23,4.27,.07,.09,.2-.04,.11-.11Z" style="fill:#263238;"/><path d="M362.98,51.25c-.63-5.78-4.69-10.27-6.57-15.62-1.02-2.89-1.62-5.98-3.19-8.64-.04-.07-.17,0-.13,.07,1.25,2.36,1.7,4.97,2.42,7.51,.73,2.59,1.92,4.97,3.14,7.35,2.22,4.33,4.89,9.46,3.04,14.41-.85,2.28-2.83,4.58-5.41,4.77-.1,0-.08,.17,.02,.15,2.13-.37,3.93-1.49,5.17-3.28,1.36-1.98,1.78-4.37,1.52-6.73Z" style="fill:#263238;"/><path d="M362.88,52.74c.59-2,.65-4.14-.03-6.13-.67-1.97-2.05-3.59-3.47-5.08-1.63-1.71-3.38-3.38-4.14-5.67-.03-.1-.17-.03-.14,.06,1.18,3.77,4.51,6.16,6.36,9.52,2.12,3.85,1.07,8.53-1.71,11.76-1.71,1.99-3.97,3.43-6.38,4.42-.04,.02-.01,.08,.03,.06,4.16-1.57,8.18-4.5,9.48-8.95Z" style="fill:#263238;"/></g><g><path d="M342.08,81.36c-1.95,10.74-11.24,46.07-21.2,50.48-6.54,2.89-34.74,5.9-40.85,.34-2.66-2.42-3.24-23.02,.61-22.99,3.85,.03,26.62-1.6,29.18-2.95,2.55-1.34,18.14-29.04,24.56-36.45,11.08-12.76,8.75,5.78,7.7,11.57Z" style="fill:#bfb4d6;"/><g><path d="M288.71,106.03l5.56,29.98s22.74-.51,31.36-6.06c10.48-6.74,18.59-46.23,19.46-52.61,1.43-10.47-1.02-16.01-6-13.29-1.94,1.04-4.27,3.33-6.89,7.09-2.75,3.91-17.97,28.68-23.39,33.97-3.03,2.96-20.1,.91-20.1,.91Z" style="fill:#455a64;"/><path d="M288.72,106.03l5.55,29.99s3.77-.08,8.83-.56c7.36-.7,17.42-2.22,22.53-5.51,10.47-6.73,18.59-46.23,19.46-52.6,1.04-7.58,.04-12.57-2.49-13.72-.95-.45-2.14-.32-3.52,.43-1.94,1.04-4.27,3.34-6.89,7.09-2.75,3.91-17.96,28.68-23.38,33.97-3.03,2.97-20.09,.91-20.09,.91Z" style="fill:#ebebeb;"/><path d="M299.56,134.25c-.69-4.46-4.17-22.59-5.19-26.45-.07-.27-.26-.29-.22,0,1.74,13.4,4.33,22.14,5.23,26.47,.02,.11,.19,.09,.18-.02Z" style="fill:#263238;"/><path d="M345.09,77.35c-.87,6.38-8.99,45.88-19.46,52.61-2.58,1.66-6.44,2.87-10.57,3.76l24.7-69.98c1.09-.45,2.05-.48,2.84-.11,2.53,1.15,3.53,6.15,2.49,13.72Z" style="fill:#263238;"/></g></g><g><path d="M385.13,122.94c-1.9,.99-3.88,1.84-5.9,2.58-.32,.11-.63,.23-.96,.33-5.6,1.92-11.57,2.92-17.38,3.31-17.66,1.18-34.02-3.38-35.29-5.74l2.84-17.62,.15-.95,.38-2.39s-4.03-5.79-3.91-12.2c.01-.61,.12-1.3,.31-2.06,.07-.3,.15-.6,.25-.93,1.56-5.12,6.12-12.58,9.93-17.72,1.59-2.15,3.05-3.88,4.1-4.87,4.24-3.98,8.74-4.7,13.06-3.26h.01c1.87,.62,3.71,1.66,5.46,3,3.7,2.82,7.1,7.03,9.86,11.8,2.89,5,5.86,12.25,8.48,19.55,.1,.26,.18,.51,.27,.77,4.73,13.24,8.32,26.41,8.32,26.41Z" style="fill:#ebebeb;"/><path d="M333.04,73.14c-1.18,1.96-2.48,3.86-3.71,5.79,.5-1.37,.99-2.74,1.53-4.09,.01-.03-.03-.05-.04-.02-.85,1.65-1.6,3.33-2.11,5.1-.91,1.47-1.76,2.97-2.46,4.55-.85,1.9-1.49,3.89-1.65,5.97-.16,2.08,.19,4.18,.87,6.14,.78,2.28,1.92,4.41,3.09,6.5,.16,.28,.54,.02,.41-.25-1.73-3.69-3.64-7.57-3.47-11.75,.17-4.13,2.1-7.94,3.98-11.53,1.14-2.16,2.3-4.33,3.7-6.33,.06-.08-.08-.16-.14-.08Z" style="fill:#263238;"/></g><g><g><path d="M350.72,63.55c-.23,1.05-5.13,7.92-9.92,7.76-1.56-.05-1.65-8.58-1.65-8.58l-.15-.63-2.1-8.79,10.26-6.79,1.48-.9s.42,2.44,.9,5.49c.02,.14,.05,.28,.07,.43,.03,.17,.06,.33,.09,.49,.08,.45,.16,.92,.23,1.38,.05,.35,.11,.7,.15,1.07,.05,.37,.1,.74,.15,1.11,.44,3.68,.58,7.51,.49,7.95Z" style="fill:#bfb4d6;"/><path d="M349.56,51.11c-2.42,7.05-7.99,9.99-10.55,11l-2.1-8.79,10.26-6.79,1.48-.9s.42,2.44,.9,5.49Z" style="fill:#263238;"/></g><g><path d="M324.05,38.59c-2.38,15.68,6.74,18.88,10.12,19.39,3.07,.46,13.58,1.65,17.57-13.7,3.99-15.35-2.54-21.41-9.51-22.84-6.96-1.43-15.8,1.48-18.18,17.15Z" style="fill:#bfb4d6;"/><g><path d="M326.69,37.6c.37-.01,.72-.09,1.09-.14,.42-.06,.75-.06,1.08-.35,.18-.16,.19-.5,.05-.69-.32-.43-.84-.49-1.35-.44-.55,.05-.95,.23-1.34,.62-.38,.37-.02,1.01,.47,.99Z" style="fill:#263238;"/><path d="M337.65,37.98c-.37-.07-.69-.2-1.05-.31-.4-.12-.73-.18-1.01-.52-.15-.18-.11-.53,.06-.69,.38-.37,.91-.34,1.4-.21,.53,.14,.9,.39,1.23,.83,.31,.43-.14,1-.62,.91Z" style="fill:#263238;"/><g><g><path d="M335.08,40.83s.08,.06,.07,.1c-.15,1.07-.13,2.32,.8,2.78,.03,.01,.02,.07-.02,.06-1.17-.29-1.17-1.95-.86-2.94Z" style="fill:#263238;"/><path d="M336.15,39.81c1.74,.05,1.51,3.53-.1,3.48-1.59-.05-1.36-3.52,.1-3.48Z" style="fill:#263238;"/></g><path d="M336.82,40.04c.29,.22,.57,.58,.93,.64,.42,.07,.77-.27,1.06-.61,.03-.03,.06,0,.06,.04-.03,.67-.33,1.33-1.06,1.39-.66,.05-1.09-.57-1.21-1.25-.02-.13,.1-.3,.21-.21Z" style="fill:#263238;"/></g><g><g><path d="M328.76,40.02s-.09,.05-.09,.09c-.03,1.08-.24,2.31-1.24,2.61-.03,0-.03,.06,0,.06,1.2-.1,1.47-1.74,1.32-2.76Z" style="fill:#263238;"/><path d="M327.86,38.84c-1.73-.23-2.06,3.24-.46,3.45,1.57,.21,1.91-3.26,.46-3.45Z" style="fill:#263238;"/></g><path d="M327.12,39c-.29,.16-.6,.47-.93,.45-.38-.01-.63-.41-.83-.8-.02-.04-.05-.01-.06,.03-.08,.66,.07,1.37,.69,1.56,.57,.17,1.05-.36,1.27-1,.04-.12-.03-.32-.15-.25Z" style="fill:#263238;"/></g><path d="M334.15,50.03c-.26,.25-.53,.59-.92,.62-.38,.02-.81-.15-1.15-.29-.03-.01-.07,.02-.05,.05,.27,.42,.86,.69,1.36,.61,.49-.08,.74-.49,.87-.94,.02-.06-.06-.09-.1-.05Z" style="fill:#263238;"/><path d="M329.95,45.79s-.35,1.59-.41,2.35c0,.07,.18,.12,.43,.15,.01,0,.02,.01,.03,0,1.32,.31,2.71-.05,3.61-1.08,.06-.07-.03-.16-.1-.11-1.06,.66-2.18,.76-3.37,.69-.04-.21,.68-2.7,.56-2.72-.41-.07-1.25,.15-1.75,.26,.63-3.33,1.78-6.54,2.35-9.87,.02-.12-.15-.17-.19-.06-1.45,3.28-2.25,7.1-2.99,10.52-.1,.43,1.51-.02,1.82-.13Z" style="fill:#263238;"/></g><g><path d="M351.68,45.15c-3.51-1.67-3.65-5.35-3.65-5.35-4.36-1.88-6.71-5.28-6.96-5.63,.11,.33,.87,2.7,1.3,3.89-10.08-1.91-13.19-9.64-13.19-9.64-3.28,3.26-3.94,5.34-4.42,6.38,0,0-.06-6.19,3.14-10.33,3.91-5.06,9.22-4.09,9.22-4.09,0,0,7.84-2.31,13.91,4.32,6.53,7.16,.64,20.43,.64,20.43Z" style="fill:#263238;"/><path d="M334.7,36.37c1.6,.91,3.39,1.52,5.17,1.91,.01,0,.02-.02,0-.02-2.84-.81-5.39-2.31-7.39-4.5-.85-.92-1.58-1.94-2.17-3.05-.62-1.16-1.22-2.53-1.33-3.85,0-.1-.16-.09-.16,.01,.11,1.39,.23,2.68,.79,3.98,.53,1.23,1.29,2.38,2.23,3.35,.84,.86,1.81,1.58,2.85,2.17" style="fill:#263238;"/></g><g><path d="M349.07,45.11s3.77-4.72,5.93-3.34c2.16,1.38-.9,8.37-3.59,9.18-2.69,.81-3.49-1.67-3.49-1.67l1.15-4.17Z" style="fill:#bfb4d6;"/><path d="M354.07,43.75s.05,.06,0,.07c-1.89,.63-2.97,2.28-3.77,4.01,.59-.65,1.36-.97,2.24-.26,.05,.04,0,.11-.06,.1-.75-.21-1.3-.11-1.85,.46-.39,.41-.67,.93-.96,1.41-.1,.16-.39,.05-.31-.13,0-.01,.01-.03,.02-.04,.11-2.36,2.15-5.53,4.69-5.6Z" style="fill:#263238;"/></g></g></g><g><g><path d="M366.5,73.24c8.98,12.96,18.4,31.92,19.25,46.91,.41,7.32-11.99,14.47-16.69,12.43-11.05-4.8-26.61-16.23-32.86-23.92-2.21-2.71,19.51-22.38,21.28-19.09,1.73,3.21,2.87,5.22,4.58,6.45,.83,.6-3.2-7.21-6.13-20.93-4.01-18.74,7.32-6.55,10.57-1.85Z" style="fill:#bfb4d6;"/><g><path d="M338.48,58.03s3.35-4.49,.1-6.52c-3.24-2.03-5.83,2.93-5.83,2.93l5.72,3.59Z" style="fill:#dd6a57;"/><rect x="321.9" y="53.04" width="6.75" height="39.37" transform="translate(562.22 307.15) rotate(-147.91)" style="fill:#6d28d9;"/><rect x="331.49" y="55.75" width="7.89" height="1.56" transform="translate(589.58 282.63) rotate(-147.91)" style="fill:#37474f;"/><rect x="330.57" y="57.22" width="7.89" height="1.57" transform="translate(587.11 284.85) rotate(-147.91)" style="fill:#37474f;"/><g><path d="M311.96,87.61l-.43,5.47-.15,1.8,1.57-.91,4.73-2.77-.06-1.19s-1.07,.47-1.09,.48l-.06-1.19s-1.07,.47-1.09,.48l-.05-1.19s-1.08,.46-1.1,.47l-.05-1.19s-1.08,.46-1.1,.47l-.05-1.19s-1.08,.46-1.1,.47Z" style="fill:#fff;"/><polygon points="311.53 93.07 311.38 94.87 312.95 93.96 311.53 93.07" style="fill:#37474f;"/></g></g><g><path d="M322.63,63.89c-1.9,2.85,5.52,6.92,5.52,6.92,0,0-2.36-.07-4.04,1.46-1.92,1.75,0,5.53,0,5.53,0,0-2.41,.42-4.01,2.22-1.67,1.86-.28,5.95-.28,5.95,0,0-2.02,1.62-2.3,4.17-.47,4.36,5.12,8.13,8.11,11.15,3.21,3.24,9.37,6.2,11.81,8.55l20.83-18.57s-7.57-17.22-13.79-21.7c-3.46-2.48-18.94-10.04-21.84-5.69Z" style="fill:#bfb4d6;"/><g><path d="M328.26,70.77c4.45,1.37,8.56,3.81,12.5,6.2,.09,.05,0,.19-.08,.14-3.89-2.43-8.52-3.87-12.5-6.13-.11-.06-.03-.24,.09-.2Z" style="fill:#263238;"/><path d="M324.4,77.58c1,.34,1.88,1.01,2.74,1.6,.93,.63,1.85,1.28,2.76,1.94,1.82,1.32,3.61,2.69,5.36,4.11,.08,.06,0,.2-.08,.14-1.82-1.32-3.65-2.6-5.52-3.84-.94-.62-1.88-1.23-2.82-1.84-.88-.56-1.85-1.08-2.59-1.83-.11-.11,.01-.31,.16-.26Z" style="fill:#263238;"/><path d="M319.89,86.02c.88,.26,1.67,1.02,2.39,1.57,.82,.62,1.64,1.24,2.46,1.85,1.65,1.22,3.3,2.44,4.98,3.61,.08,.06,0,.19-.08,.14-1.72-1.17-3.46-2.32-5.17-3.51-.84-.58-1.68-1.17-2.51-1.77-.71-.5-1.65-1.05-2.13-1.8-.03-.04,.02-.09,.06-.08Z" style="fill:#263238;"/></g><path d="M345.69,70.59c-1-1.12-2.67-2.85-6.59-4.01-.11-.03-.11,.03,0,.08,.58,.28,3.6,1.56,6.56,3.97,.03,.02,.06-.01,.04-.04Z" style="fill:#263238;"/></g></g><g><path d="M335.29,112.65l22.51-23.95,3.82,6.33s-4.77-12.32-6.43-20.13c-1.66-7.81-1.79-17.03,8.63-5.64,10.21,11.16,23.46,42.05,23.12,50.7-.33,8.65-11.1,14.3-16.66,13.52s-35-20.83-35-20.83Z" style="fill:#ebebeb;"/><g><path d="M341.5,114.9c3.15-3.23,15.55-16.9,18.03-20.04,.17-.22,.08-.38-.13-.18-9.67,9.44-15.09,16.76-18.02,20.09-.07,.08,.04,.21,.12,.13Z" style="fill:#263238;"/><path d="M379.26,117.73c-1.35-2.14-2.9-4.18-4.38-6.24-1.49-2.07-2.97-4.13-4.54-6.15-1.57-2.02-3.24-3.98-4.89-5.95-.83-.98-2.44-2.91-3.27-3.89-.82-.97-.9-.73-.11,.33,.76,1.02,2.3,2.99,3.05,4.01,1.49,2.02,2.94,4.06,4.48,6.04,1.54,1.99,3.13,3.95,4.7,5.92,1.6,2,3.13,4.06,4.81,6,.07,.08,.21,0,.15-.09Z" style="fill:#263238;"/><path d="M359.4,87.96c-.91-2.35-1.98-4.67-2.7-7.09-.03-.1-.18-.05-.15,.05,.53,1.59,.97,3.21,1.45,4.81-.04-.06-.08-.13-.13-.19-.4-.61-.77-1.23-1.15-1.86-.05-.09-.18,0-.13,.08,.35,.64,.69,1.28,1.02,1.94,.25,.51,.5,1.06,.86,1.52,.11,.35,.22,.7,.35,1.04,.84,2.33,1.8,4.7,2.97,6.89,.07,.14,.3,.03,.25-.11-.78-2.38-1.72-4.75-2.62-7.09Z" style="fill:#263238;"/><path d="M357.97,88.57c-.08-.12-.64,.5-.9,.83-.04,.05,.02,.08,.09,.02,.18-.15,.39-.24,.56-.4,.59,1.07,3.83,6.11,4.05,6.33,.1,.1,.19,0,.14-.13-.2-.56-3.23-5.56-3.95-6.65Z" style="fill:#263238;"/><path d="M362.45,129.77c-6.94-4.67-14.01-9.17-21.22-13.41-1.97-1.16-3.85-2.42-5.79-3.64,.2-.15,2.03-2.24,2.08-2.31,.03-.04-.02-.09-.06-.05-.21,.19-2.56,2.25-2.72,2.48-.1,.14,7.25,4.75,10.73,7.01,3.51,2.28,7.11,4.4,10.72,6.52,2.05,1.21,4.11,2.39,6.19,3.53,.09,.05,.15-.08,.07-.13Z" style="fill:#263238;"/></g></g></g><g><g><polygon points="296.81 141.73 332.27 141.22 315.05 95.97 279.6 96.49 296.81 141.73" style="fill:#ebebeb;"/><polygon points="294.38 141.77 329.84 141.25 312.63 96.01 277.17 96.52 294.38 141.77" style="fill:#6d28d9;"/><path d="M308.86,96.07c.22,.71,.77,1.44,1.55,1.83,.34,.18,.42-.27,.09-.43-.49-.25-.85-.7-1.05-1.15-.03-.08-.06-.17-.09-.25-.09-.3-.13-.6-.07-.86,.03-.13,.09-.23,.19-.31,0,0,.02-.01,.02-.02,.02-.01,.04-.01,.04-.02,.02,0,.07-.01,.07-.01,.08-.02,.16-.01,.25,.02,.15,.04,.28,.14,.41,.26,.16,.16,.25,.29,.36,.47,.06,.08,.1,.17,.16,.26l.02,.06s.03,.06,.04,.09c0,.02,.03,.04,.02,.06h.5c-.11-.3-.29-.6-.49-.88-.36-.46-.84-.83-1.37-.85-.48,0-.72,.34-.78,.74-.05,.31-.01,.66,.11,1.02Z" style="fill:#455a64;"/><path d="M306.08,96.11c.22,.71,.77,1.44,1.55,1.83,.34,.18,.42-.27,.09-.43-.49-.25-.85-.7-1.05-1.15-.03-.08-.06-.17-.09-.25-.09-.3-.13-.6-.07-.86,.03-.13,.09-.23,.19-.31,0,0,.02-.01,.02-.02,.02-.01,.04-.01,.04-.02,.02,0,.07-.01,.07-.01,.08-.02,.16-.01,.25,.02,.15,.04,.28,.14,.41,.26,.16,.16,.25,.29,.36,.47,.06,.08,.11,.17,.16,.26l.02,.06s.03,.06,.04,.09c0,.02,.03,.04,.02,.06h.5c-.11-.3-.29-.6-.49-.88-.36-.46-.84-.83-1.37-.85-.48,0-.72,.34-.78,.74-.05,.31-.01,.66,.11,1.02Z" style="fill:#455a64;"/><path d="M303.31,96.15c.22,.71,.77,1.44,1.55,1.83,.34,.18,.42-.27,.09-.43-.49-.25-.85-.7-1.05-1.15-.03-.08-.06-.17-.09-.25-.09-.3-.13-.6-.07-.86,.03-.13,.09-.23,.19-.31,0,0,.02-.01,.02-.02,.02-.01,.04-.01,.04-.02,.02,0,.07-.01,.07-.01,.08-.02,.16-.01,.25,.02,.15,.04,.28,.14,.41,.26,.16,.16,.25,.29,.36,.47,.06,.08,.11,.17,.16,.26l.02,.06s.03,.06,.04,.09c0,.02,.03,.04,.02,.06h.5c-.11-.3-.29-.6-.49-.88-.36-.46-.84-.83-1.37-.85-.48,0-.72,.34-.78,.74-.05,.31-.01,.66,.11,1.02Z" style="fill:#455a64;"/><path d="M300.53,96.19c.22,.71,.77,1.44,1.55,1.83,.34,.18,.42-.27,.09-.43-.49-.25-.85-.7-1.05-1.15-.03-.08-.06-.17-.09-.25-.09-.3-.13-.6-.07-.86,.03-.13,.09-.23,.19-.31,0,0,.02-.01,.02-.02,.02-.01,.04-.01,.04-.02,.02,0,.07-.01,.07-.01,.08-.02,.16-.01,.25,.02,.15,.04,.28,.14,.41,.26,.16,.16,.25,.29,.36,.47,.06,.08,.11,.17,.16,.26l.02,.06s.03,.06,.04,.09c0,.02,.03,.04,.02,.06h.5c-.11-.3-.29-.6-.49-.88-.36-.46-.84-.83-1.37-.85-.48,0-.72,.34-.78,.74-.05,.31-.01,.66,.11,1.02Z" style="fill:#455a64;"/><path d="M297.76,96.23c.22,.71,.77,1.44,1.55,1.83,.34,.18,.42-.27,.09-.43-.49-.25-.85-.7-1.05-1.15-.03-.08-.06-.17-.09-.25-.09-.3-.13-.6-.07-.86,.03-.13,.09-.23,.19-.31,0,0,.02-.01,.02-.02,.02-.01,.04-.01,.04-.02,.02,0,.07-.01,.07-.01,.08-.02,.16-.01,.25,.02,.15,.04,.28,.14,.41,.26,.16,.16,.25,.29,.36,.47,.06,.08,.11,.17,.16,.26l.02,.06s.03,.06,.04,.09c0,.02,.03,.04,.02,.06h.5c-.11-.3-.29-.6-.49-.88-.36-.46-.84-.83-1.37-.85-.48,0-.72,.34-.78,.74-.05,.31-.01,.66,.11,1.02Z" style="fill:#455a64;"/><path d="M294.98,96.27c.22,.71,.77,1.44,1.55,1.83,.34,.18,.42-.27,.09-.43-.49-.25-.85-.7-1.05-1.15-.03-.08-.06-.17-.09-.25-.09-.3-.13-.6-.07-.86,.03-.13,.09-.23,.19-.31,0,0,.02-.01,.02-.02,.02-.01,.04-.01,.04-.02,.02,0,.07-.01,.07-.01,.08-.02,.16-.01,.25,.02,.15,.04,.28,.14,.41,.26,.16,.16,.25,.29,.36,.47,.06,.08,.11,.17,.16,.26l.02,.06s.03,.06,.04,.09c0,.02,.03,.04,.02,.06h.5c-.11-.3-.28-.6-.49-.88-.36-.46-.84-.83-1.37-.85-.48,0-.72,.34-.78,.74-.05,.31-.01,.66,.11,1.02Z" style="fill:#455a64;"/><path d="M292.21,96.31c.22,.71,.77,1.44,1.55,1.83,.34,.18,.42-.27,.09-.43-.49-.25-.85-.7-1.05-1.15-.03-.08-.06-.17-.09-.25-.09-.3-.13-.6-.07-.86,.03-.13,.09-.23,.19-.31,0,0,.02-.01,.02-.02,.02-.01,.04-.01,.04-.02,.02,0,.07-.01,.07-.01,.08-.02,.16-.01,.25,.02,.15,.04,.28,.14,.41,.26,.16,.16,.25,.29,.36,.47,.06,.08,.1,.17,.16,.26l.02,.06s.03,.06,.04,.09c0,.02,.03,.04,.02,.06h.5c-.11-.3-.29-.6-.49-.88-.36-.46-.84-.83-1.37-.85-.48,0-.72,.34-.78,.74-.05,.31-.01,.66,.11,1.02Z" style="fill:#455a64;"/><path d="M289.43,96.35c.22,.71,.77,1.44,1.55,1.83,.34,.18,.42-.27,.09-.43-.49-.25-.85-.7-1.05-1.15-.03-.08-.06-.17-.09-.25-.09-.3-.13-.6-.07-.86,.03-.13,.09-.23,.19-.31,0,0,.02-.01,.02-.02,.02-.01,.04-.01,.04-.02,.02,0,.07-.01,.07-.01,.08-.02,.16-.01,.25,.02,.15,.04,.28,.14,.41,.26,.16,.16,.25,.29,.36,.47,.06,.08,.11,.17,.16,.26l.02,.06s.03,.06,.04,.09c0,.02,.03,.04,.02,.06h.5c-.11-.3-.29-.6-.49-.88-.36-.46-.84-.83-1.37-.85-.48,0-.72,.34-.78,.74-.05,.31-.01,.66,.11,1.02Z" style="fill:#455a64;"/><path d="M286.66,96.39c.22,.71,.77,1.44,1.55,1.83,.34,.18,.42-.27,.09-.43-.49-.25-.85-.7-1.05-1.15-.03-.08-.06-.17-.09-.25-.09-.3-.13-.6-.07-.86,.03-.13,.09-.23,.19-.31,0,0,.02-.01,.02-.02,.02-.01,.04-.01,.04-.02,.02,0,.07-.01,.07-.01,.08-.02,.16-.01,.25,.02,.15,.04,.28,.14,.41,.26,.16,.16,.25,.29,.36,.47,.06,.08,.11,.17,.16,.26l.02,.06s.03,.06,.04,.09c0,.02,.03,.04,.02,.06h.5c-.11-.3-.29-.6-.49-.88-.36-.46-.84-.83-1.37-.85-.48,0-.72,.34-.78,.74-.05,.31-.01,.66,.11,1.02Z" style="fill:#455a64;"/><path d="M283.88,96.43c.22,.71,.77,1.44,1.55,1.83,.34,.18,.42-.27,.09-.43-.49-.25-.85-.7-1.05-1.15-.03-.08-.06-.17-.09-.25-.09-.3-.13-.6-.07-.86,.03-.13,.09-.23,.19-.31,0,0,.02-.01,.02-.02,.02-.01,.04-.01,.04-.02,.02,0,.07-.01,.07-.01,.08-.02,.16-.01,.25,.02,.15,.04,.28,.14,.41,.26,.16,.16,.25,.29,.36,.47,.06,.08,.11,.17,.16,.26l.02,.06s.03,.06,.04,.09c0,.02,.03,.04,.02,.06h.5c-.11-.3-.29-.6-.49-.88-.36-.46-.84-.83-1.37-.85-.48,0-.72,.34-.78,.74-.05,.31-.01,.66,.11,1.02Z" style="fill:#455a64;"/><path d="M281.11,96.47c.22,.71,.77,1.44,1.55,1.83,.34,.18,.42-.27,.09-.43-.49-.25-.85-.7-1.05-1.15-.03-.08-.06-.17-.09-.25-.09-.3-.13-.6-.07-.86,.03-.13,.09-.23,.19-.32,0,0,.02-.01,.02-.02,.02-.01,.04-.01,.04-.02,.02,0,.07-.01,.07-.01,.08-.02,.16-.01,.25,.02,.15,.04,.28,.14,.41,.26,.16,.16,.25,.29,.36,.47,.06,.08,.11,.17,.16,.26l.02,.06s.03,.06,.04,.09c0,.02,.03,.04,.02,.06h.5c-.11-.3-.29-.6-.49-.88-.36-.46-.84-.83-1.37-.85-.48,0-.72,.34-.78,.74-.05,.31-.01,.66,.11,1.02Z" style="fill:#455a64;"/><path d="M278.33,96.51c.22,.71,.77,1.44,1.55,1.83,.34,.18,.42-.27,.09-.43-.49-.25-.85-.7-1.05-1.15-.03-.08-.06-.17-.09-.25-.09-.3-.13-.6-.07-.86,.03-.13,.09-.23,.19-.31,0,0,.02-.01,.02-.02,.02-.01,.04-.01,.04-.02,.02,0,.07-.01,.07-.01,.08-.02,.16-.01,.25,.02,.15,.04,.28,.14,.41,.26,.16,.16,.25,.29,.36,.47,.06,.08,.11,.17,.16,.26l.02,.06s.03,.06,.04,.09c0,.02,.03,.04,.02,.06h.5c-.11-.3-.28-.6-.49-.88-.36-.46-.84-.83-1.37-.85-.48,0-.72,.34-.78,.74-.05,.31-.01,.66,.11,1.02Z" style="fill:#455a64;"/></g><g><path d="M279.48,107.57c-1.41,4.02-5.48,9.26-5.52,12.43-.04,2.86,2.41,3.6,2.41,3.6,0,0-2.95,1.89-2.52,4.77,.22,1.48,2.79,2.43,2.79,2.43,0,0-2.3,1.62-1.76,4.15,.43,2.02,2.94,2.67,2.94,2.67,0,0-1.49,2.58-.38,4.5,2.24,3.89,19.89,2.01,21.93-4.78,.95-3.17-3.34-2.47-3.34-2.47,0,0,5.92-2.48,5.63-6.13-.29-3.65-5.81-2.41-5.81-2.41,0,0,5.72-2.46,5.03-6.21-.71-3.91-6.02-1.73-6.02-1.73,0,0,3.64-3.08,2.46-5.83-1.95-4.55-8.76,2.15-12.74,1.65l-2.82-6.17-2.28-.46Z" style="fill:#bfb4d6;"/><path d="M276.53,113.51c1-3.92-4.17-8.09-3.75-11.98,.57-5.26,6.89-.84,8.98,6.5l.61,5.98-5.84-.5Z" style="fill:#bfb4d6;"/><g><path d="M278.2,137.78c-.06,0-.07,.08,0,.09,5.96,.8,12.75-.15,18.07-3.02,.17-.09,.1-.42-.11-.35-6.05,1.9-11.57,3.11-17.95,3.28Z" style="fill:#263238;"/><path d="M276.56,130.84c-.07,0-.07,.12,0,.13,6.14,.79,13.76-.49,19.51-4.52,.2-.14,.24-.46,0-.32-4.02,2.39-13.77,4.59-19.51,4.71Z" style="fill:#263238;"/><path d="M295.19,117.96c-5.66,3.65-11.92,5.11-18.57,5.69-.09,0-.07,.13,0,.14,3.33,.6,7.53-.21,10.74-1.12,3.08-.87,5.68-2.27,7.95-4.52,.09-.09,0-.28-.13-.2Z" style="fill:#263238;"/></g></g></g></g></g></g><g id="Plant"><g><g><g><path d="M55.77,209.27s-24.21-3.39-18.55-32.61c0,0,27.05,6.07,18.55,32.61Z" style="fill:#6d28d9;"/><path d="M55.77,209.27s-24.21-3.39-18.55-32.61c0,0,27.05,6.07,18.55,32.61Z" style="opacity:.1;"/><path d="M54.55,203.17c-.47-1.48-1.03-2.93-1.65-4.36-.02-.19-.05-.37-.06-.55-.04-.4-.07-.8-.1-1.21-.07-.87-.12-1.74-.17-2.62-.1-1.74-.21-3.49-.24-5.24,0-.1-.15-.09-.15,0-.02,1.75-.04,3.5,.03,5.25,.03,.87,.08,1.75,.14,2.62,.01,.19,.03,.39,.04,.58-1.35-2.91-2.99-5.7-4.85-8.3-.83-1.16-1.71-2.28-2.65-3.36-.96-1.1-1.98-2.16-2.96-3.25-.06-.07-.17,.04-.1,.11,1.78,1.86,3.25,4.06,4.67,6.2,.74,1.11,1.43,2.26,2.09,3.42-.08-.03-.15-.06-.23-.09-.29-.12-.57-.24-.86-.35-.66-.25-1.32-.5-1.98-.75-1.3-.48-2.6-.96-3.89-1.45-.08-.03-.13,.11-.05,.14,1.29,.51,2.56,1.06,3.83,1.6,.62,.27,1.25,.54,1.87,.81,.31,.14,.63,.26,.95,.39,.21,.09,.42,.19,.64,.23,.49,.88,.97,1.76,1.42,2.65,1.12,2.26,2.12,4.6,2.96,6.97,.06,.17,.12,.33,.17,.5-.6-.4-1.36-.67-1.98-.96-.83-.39-1.67-.76-2.51-1.14-1.7-.78-3.38-1.57-5.01-2.49-.08-.05-.15,.08-.07,.13,1.66,.91,3.29,1.88,4.96,2.78,.83,.45,1.67,.89,2.52,1.3,.7,.34,1.49,.81,2.27,.91,.76,2.24,1.39,4.5,1.59,6.87,.27,3.3,.24,6.64,.32,9.95,0,.06,.08,.05,.09,0,.24-3.01,.38-6.04,.39-9.05,.01-2.87-.56-5.53-1.43-8.25Z" style="fill:#263238;"/><path d="M50.82,185.98c-.19,1.7-.36,3.44-.24,5.15,0,.05,.07,.05,.07,0,.1-1.71,.11-3.41,.31-5.12,.01-.09-.13-.13-.14-.04Z" style="fill:#263238;"/><path d="M43.9,187.45c-1.07-.45-2.14-.88-3.11-1.53-.08-.05-.15,.08-.07,.13,.98,.61,2.02,1.2,3.14,1.5,.06,.02,.1-.08,.04-.1Z" style="fill:#263238;"/></g><path d="M56.54,255.66c-.02-2.68-.07-5.35-.1-8.02-.05-8.88-.12-17.77-.28-26.65-.13-7.05-.29-14.1-.49-21.15,0-.04-.03-.07-.06-.09,0-1.93-.02-3.85-.03-5.78,0-.05-.06-.07-.12-.07-.06,0-.12,.03-.12,.08-.01,1.93-.02,3.86-.04,5.79-.03,.02-.05,.05-.06,.08-.36,12.55-.67,25.11-.75,37.66-.01,2.55-.01,5.1-.02,7.66-.09,8.18-.12,16.37-.09,24.56,0,1.3-.02,2.61-.03,3.91-.03,7.49,.08,14.98,.08,22.47,0,.4,.45,.6,.92,.62,.54,.02,1.12-.19,1.12-.66,0-8.26,.06-16.52,.06-24.77,.03-5.21,.05-10.41,0-15.62Z" style="fill:#263238;"/><g><path d="M46.44,247.54s-11.64-8.63-22.69-2.8c-11.05,5.83-12.78,28.3-12.78,28.3,0,0,16.23,2.32,26.45-7.41,9.85-9.37,9.03-18.1,9.03-18.1Z" style="fill:#6d28d9;"/><path d="M49.61,248.07c-2.11-.89-4.45-1.1-6.75-.88-.46-.1-.96-.11-1.43-.14-.55-.04-1.09-.08-1.64-.12-1.13-.09-2.26-.16-3.4-.24-2.3-.17-4.6-.31-6.89-.54-.08,0-.1,.14-.02,.15,2.27,.29,4.53,.61,6.8,.84,1.17,.12,2.34,.24,3.51,.32,.28,.02,.56,.05,.85,.08-.35,.08-.69,.16-1.03,.26-1.83,.52-3.59,1.26-5.28,2.14-.92,.16-1.83,.42-2.73,.63-1.44,.34-2.88,.71-4.31,1.09-2.83,.74-5.63,1.57-8.43,2.39-.09,.03-.05,.16,.04,.14,2.8-.69,5.62-1.32,8.43-1.99,1.37-.32,2.73-.65,4.09-.98,.35-.09,.71-.17,1.07-.25-3.14,1.93-5.96,4.41-8.28,7.2-2.32,2.78-4.16,5.83-5.75,9.07-.04,.08,.08,.16,.12,.08,1.88-3.3,4.25-6.4,6.96-9.14-.05,.15-.1,.31-.15,.46-.22,.69-.43,1.37-.65,2.06-.43,1.37-.87,2.74-1.28,4.12-.03,.09,.11,.12,.14,.04,.49-1.33,.96-2.67,1.43-4,.23-.66,.46-1.31,.69-1.97,.12-.34,.23-.68,.35-1.02,.04-.11,.08-.21,.11-.31,1.31-1.26,2.68-2.45,4.13-3.52,1.91-1.41,4-2.6,6.18-3.54-.04,.2-.08,.4-.12,.6-.11,.53-.23,1.06-.34,1.59-.23,1.1-.44,2.21-.66,3.31-.44,2.25-.71,4.53-1.13,6.79-.02,.09,.12,.13,.14,.04,.52-2.27,1.2-4.5,1.7-6.77,.25-1.14,.51-2.27,.74-3.41,.11-.53,.22-1.06,.32-1.6,.06-.3,.13-.59,.16-.89,.21-.08,.42-.18,.63-.26,3.05-1.13,6.43-1.95,9.69-1.33,3.12,.6,5.79,2.69,7.01,5.62,.11,.25,.51,.1,.45-.16-.63-2.8-2.97-4.88-5.53-5.95Z" style="fill:#263238;"/><path d="M31.78,257.66c-.33,1.47-.66,2.95-.98,4.43-.31,1.41-.7,2.86-.81,4.31,0,.06,.08,.06,.09,.01,.48-1.39,.71-2.9,.99-4.34,.29-1.46,.57-2.91,.86-4.37,.02-.09-.12-.13-.14-.04Z" style="fill:#263238;"/><path d="M20.52,261.41c-1.48,.75-2.92,1.61-4.47,2.22-.1,.04-.04,.18,.06,.13,1.49-.74,3.03-1.4,4.44-2.3,.04-.02,0-.08-.03-.06Z" style="fill:#263238;"/></g><g><path d="M49.05,231.69s-14.23,.91-20.85-8.48c-6.62-9.38-5.13-22.78-5.13-22.78,0,0,14.95,1.82,20.88,8.56,5.94,6.74,5.1,22.71,5.1,22.71Z" style="fill:#6d28d9;"/><path d="M55.73,245.74c-.49-1.52-1.1-3.03-1.68-4.52-.55-1.44-1.14-2.86-1.77-4.26-1.28-2.87-2.69-5.67-4.27-8.38-1-1.73-2.08-3.41-3.19-5.06-.02-.25-.07-.5-.11-.76-.07-.44-.13-.88-.2-1.32-.14-.9-.3-1.8-.45-2.7-.33-1.96-.73-3.92-1.05-5.88-.01-.09-.16-.09-.15,0,.29,1.94,.48,3.9,.75,5.84,.13,.95,.26,1.91,.4,2.86,.05,.34,.11,.69,.16,1.03-2.17-3.17-4.51-6.22-7.04-9.13-.34-.39-.69-.78-1.04-1.16-.04-.11-.09-.21-.13-.33-.11-.27-.21-.54-.31-.81-.21-.56-.41-1.13-.62-1.7-.4-1.11-.76-2.24-1.06-3.38-.02-.09-.16-.05-.14,.04,.29,1.17,.59,2.33,.93,3.49,.17,.56,.35,1.11,.54,1.65,.03,.09,.07,.18,.1,.27-1.82-1.98-3.72-3.89-5.63-5.78-.07-.07-.17,.04-.1,.11,3.72,3.81,7.01,8.01,10.08,12.35-.35-.11-.7-.2-1.05-.27-1.1-.21-2.2-.37-3.31-.51-2.32-.3-4.63-.59-6.94-.95-.09-.01-.13,.12-.04,.14,2.21,.43,4.39,.93,6.58,1.43,1.03,.24,2.07,.44,3.11,.64,.87,.17,1.67,.44,2.5,.71,.23,.33,.47,.65,.7,.98,1.04,1.52,2.05,3.07,3.03,4.63-.48-.1-.97-.19-1.45-.28-1.1-.21-2.2-.41-3.31-.59-2.17-.36-4.34-.73-6.49-1.22-.09-.02-.13,.12-.04,.14,2.18,.51,4.33,1.11,6.49,1.68,1.04,.28,2.09,.53,3.15,.76,.53,.12,1.05,.23,1.58,.34,.23,.05,.44,.11,.64,.11,2.08,3.37,4.03,6.82,5.84,10.34,.79,1.55,1.56,3.11,2.3,4.69,.76,1.62,1.41,3.27,2.11,4.91,.14,.33,.66,.19,.54-.16Z" style="fill:#263238;"/><path d="M41.17,213.03c-.27-1.36-.56-2.71-.86-4.06-.02-.09-.16-.05-.14,.04,.27,1.33,.53,2.67,.77,4.01,.24,1.33,.43,2.69,.81,3.99,0,.02,.04,.02,.04,0-.07-1.33-.36-2.66-.62-3.97Z" style="fill:#263238;"/><path d="M32.87,212.63c-.66-.33-1.36-.59-2.04-.86-.36-.14-.72-.28-1.08-.42-.18-.07-.37-.15-.55-.22-.19-.08-.43-.14-.6-.26-.11-.08-.18,.11-.07,.13,.21,.03,.41,.16,.61,.25,.18,.08,.36,.16,.54,.24,.35,.15,.69,.31,1.04,.46,.69,.3,1.38,.61,2.1,.83,.08,.03,.13-.1,.06-.14Z" style="fill:#263238;"/></g><g><path d="M63.62,220.5s8.61-16.09,21.72-18.58c13.1-2.49,21.12,10.99,21.12,10.99,0,0-9.56,12.2-21.58,14.34-12.02,2.13-21.26-6.75-21.26-6.75Z" style="fill:#6d28d9;"/><path d="M94.12,209.13c-3.39-.47-6.87-.41-10.28,.12,.2-.11,.39-.22,.58-.31,.97-.49,1.94-.99,2.91-1.5,2.01-1.05,4.05-2.16,6.15-3,.1-.04,.04-.18-.06-.13-2.05,.95-4.17,1.75-6.23,2.7-1.03,.47-2.04,.97-3.04,1.5-.65,.34-1.36,.67-2,1.08-2.88,.59-5.69,1.51-8.33,2.77,.55-.59,1.09-1.19,1.64-1.78,1.22-1.34,2.42-2.74,3.76-3.96,.07-.06-.04-.17-.11-.1-1.37,1.25-2.82,2.4-4.15,3.69-.65,.63-1.26,1.28-1.86,1.95-.3,.33-.6,.68-.89,1.04-5.7,3.1-10.55,7.77-13.74,13.42-1.82,3.21-3.09,6.68-3.82,10.3-.02,.09,.11,.14,.14,.05,1.8-6.07,5.19-11.78,9.63-16.3,4.81-4.9,10.89-8.44,17.55-10.16,3.95-1.02,8.04-1.37,12.11-1.1,.17,.01,.18-.24,.02-.26Z" style="fill:#263238;"/><path d="M106.46,212.92s-9.56,12.21-21.59,14.33c-9.17,1.63-16.72-3.16-19.78-5.51l-.66-1.09s6.2-5.23,17.94-8.24c11.73-3.02,24.09,.51,24.09,.51Z" style="opacity:.1;"/><path d="M86.51,203.4c-1,.61-1.98,1.21-2.91,1.92-.91,.7-1.76,1.46-2.53,2.31-.07,.08,.04,.17,.11,.11,.87-.76,1.74-1.51,2.65-2.23,.89-.7,1.79-1.4,2.76-1.99,.08-.05,0-.18-.08-.13Z" style="fill:#263238;"/><path d="M93.7,206.12c-.49,.2-.98,.38-1.47,.58-.49,.2-.97,.4-1.46,.61-.1,.04-.05,.21,.05,.17,.49-.2,.97-.4,1.46-.59,.49-.2,.97-.42,1.45-.62,.09-.04,.04-.18-.04-.14Z" style="fill:#263238;"/></g><g><path d="M61.9,240.75s2.3,15.96,14.3,21.54c12,5.58,26.63,0,26.63,0,0,0-5.75-34.53-40.93-21.54Z" style="fill:#6d28d9;"/><path d="M94.56,251.91c-1.11-.13-2.21-.31-3.3-.51-.54-.1-1.08-.2-1.61-.3-.27-.05-.56-.12-.84-.17-.32-.3-.64-.61-.97-.9-2.27-2-4.74-3.78-7.34-5.32-1.42-.84-2.89-1.59-4.4-2.26,.08,0,.15,0,.23,.01,1.32,.06,2.63,.11,3.95,.17,2.63,.12,5.27,.18,7.9,.35,.09,0,.09-.14,0-.15-2.64-.18-5.27-.47-7.91-.7-1.28-.11-2.56-.23-3.84-.34-.66-.06-1.32-.12-1.98-.17-.17-.01-.34-.04-.51-.05-.68-.26-1.37-.5-2.07-.71-3.28-1.02-6.8-1.42-10.16-.56-3.02,.77-6.03,2.75-6.81,5.93-.03,.11,.14,.19,.19,.08,1.13-2.66,4.08-4,6.74-4.55,1.79-.37,3.63-.35,5.43-.11,.07,.82,.38,1.66,.61,2.41,.33,1.12,.66,2.25,1,3.37,.68,2.24,1.43,4.46,2.09,6.71,.03,.09,.16,.05,.14-.04-.56-2.24-1.03-4.5-1.57-6.74-.27-1.1-.54-2.2-.82-3.3-.17-.71-.32-1.54-.6-2.27,1.05,.18,2.1,.44,3.11,.73,1.84,.54,3.66,1.22,5.44,1.99,.18,1.14,.43,2.27,.69,3.39,.33,1.41,.69,2.8,1.14,4.18,.03,.09,.15,.05,.13-.04-.02-.09-.04-.17-.05-.26,0,0,0,0,0,0-.27-1.31-.56-2.61-.83-3.91-.22-1.05-.43-2.11-.65-3.16,1.49,.67,2.96,1.4,4.37,2.22,.03,.33,.11,.66,.16,.95,.09,.55,.19,1.09,.29,1.64,.23,1.23,.47,2.46,.77,3.67,.57,2.34,1.21,4.69,2.06,6.94-.02,.03-.02,.06,0,.09,.02,.03,.05,.05,.07,.08,.05,.06,.14-.01,.12-.07-.56-2.36-1.19-4.71-1.71-7.08-.26-1.18-.52-2.37-.76-3.56-.12-.59-.23-1.19-.34-1.79-.03-.17-.06-.35-.08-.53,1.62,.96,3.19,2,4.67,3.12,2.56,1.93,5.01,4.14,7.15,6.53,.09,.1,.26-.04,.18-.14-.92-1.2-1.83-2.38-2.86-3.49-.6-.65-1.23-1.27-1.87-1.88,.07,.01,.13,.02,.2,.03,.56,.09,1.13,.18,1.69,.25,1.11,.15,2.22,.26,3.34,.38,.09,.01,.13-.13,.04-.14Z" style="fill:#263238;"/><path d="M86.13,257.32h0c-.02-.14-.04-.28-.07-.41-.03-.18-.12-.35-.15-.52,0,0,0,0,0,0-.25-1.07-.46-2.14-.65-3.22-.01-.07-.13-.05-.13,.02,.05,1.42,.4,2.84,.91,4.17,.02,.04,.09,.04,.09-.01,0,0,0,0,0-.01Z" style="fill:#263238;"/><path d="M76.09,257.06s-.04-.07-.07-.07c-.34-1.41-.66-2.83-.95-4.25-.15-.75-.31-1.49-.45-2.24-.08-.4-.15-.81-.22-1.21-.06-.35-.09-.72-.26-1.04-.03-.05-.13-.04-.13,.02-.1,.67,.18,1.48,.3,2.14,.15,.78,.3,1.56,.47,2.33,.35,1.57,.74,3.14,1.19,4.69,.02,.09,.17,.07,.16-.03,0-.12-.02-.23-.02-.35Z" style="fill:#263238;"/><path d="M93.47,247.31c-2.19-.3-4.38-.62-6.58-.88-.09-.01-.13,.13-.04,.14,2.19,.32,4.38,.6,6.58,.88,.09,.01,.13-.13,.04-.14Z" style="fill:#263238;"/></g><g><path d="M55.75,203.32s-7.34-32.22,27.27-45.25c0,0,9.59,42.41-27.27,45.25Z" style="fill:#6d28d9;"/><path d="M63.23,185.05c.13-.08,.26-.16,.37-.23,.65-.36,1.3-.73,1.96-1.09l4.01-2.25c2.64-1.48,5.25-3.01,7.91-4.46,.08-.05,0-.17-.08-.13-2.66,1.45-5.38,2.81-8.06,4.22l-3.97,2.1c-.54,.29-1.08,.57-1.62,.86,1.15-2.19,2.39-4.34,3.74-6.4,1.81-2.76,3.79-5.39,5.86-7.96,.09-.12-.06-.27-.17-.16-3.05,2.92-5.7,6.26-8,9.81,0-.11,0-.23,.01-.34,.04-.8,.06-1.6,.07-2.41,.02-1.57-.05-3.15,0-4.72,0-.1-.14-.09-.15,0-.06,1.55-.25,3.09-.34,4.64-.04,.77-.08,1.54-.1,2.32-.01,.42-.05,.89-.04,1.35-.71,1.13-1.4,2.29-2.04,3.45-1.15,2.08-2.19,4.25-3.09,6.49-.03-.8-.08-1.6-.13-2.41-.1-1.76-.32-3.52-.39-5.28,0-.1-.15-.09-.15,0,.04,1.76-.05,3.53,0,5.29,.03,.88,.05,1.76,.11,2.64,.02,.32,.04,.65,.06,.98-1.1,2.89-1.99,5.87-2.61,8.85-.67,3.23-.95,6.46-1.29,9.73,0,.02,.03,.02,.04,0,.3-2.91,1.04-5.86,1.84-8.67,.43-1.52,.88-3.03,1.37-4.53,1.44-.68,2.82-1.52,4.21-2.3,1.44-.8,2.9-1.58,4.34-2.38,2.89-1.58,5.77-3.2,8.75-4.59,.09-.04,0-.16-.08-.13-3.02,1.37-6.06,2.67-9.02,4.16-1.48,.74-2.93,1.53-4.36,2.34-1.2,.68-2.44,1.36-3.59,2.13,.34-1,.69-2,1.07-2.99,1.05-2.71,2.24-5.37,3.56-7.96Z" style="fill:#263238;"/><path d="M60.31,177.69c0-.09-.15-.09-.15,0,.12,1.84,.19,3.67,.38,5.51,.01,.1,.17,.1,.16,0-.06-1.84-.26-3.67-.4-5.51Z" style="fill:#263238;"/><path d="M76.9,183.84c-2.17,.87-4.35,1.7-6.51,2.6-.06,.03-.03,.12,.03,.1,2.19-.82,4.35-1.71,6.52-2.56,.09-.03,.05-.18-.04-.14Z" style="fill:#263238;"/><path d="M80.19,168.98c-2.12,.98-4.17,2.07-6.16,3.3-.1,.06,0,.22,.1,.16,2.01-1.17,4.05-2.3,6.14-3.33,.09-.04,0-.16-.08-.13Z" style="fill:#263238;"/></g></g><g><rect x="29.75" y="272.99" width="49.92" height="52.62" style="fill:#455a64;"/><rect x="26.32" y="291.6" width="2.55" height="90.13" style="fill:#263238;"/><rect x="80.28" y="291.6" width="2.55" height="90.13" style="fill:#263238;"/><rect x="54.66" y="291.6" width="2.55" height="90.13" style="fill:#263238;"/><rect x="27.59" y="322.23" width="53.97" height="7.29" style="fill:#263238;"/></g></g></g></svg>